<?xml version="1.0" encoding="utf-8"?>
<!-- Generator: Adobe Illustrator 16.0.0, SVG Export Plug-In . SVG Version: 6.00 Build 0)  -->
<!DOCTYPE svg PUBLIC "-//W3C//DTD SVG 1.1//EN" "http://www.w3.org/Graphics/SVG/1.1/DTD/svg11.dtd">
<svg version="1.1"
	 id="svg152160" sodipodi:docname="VCMixer.svg" inkscape:version="0.92.2 5c3e80d, 2017-08-06" xmlns:dc="http://purl.org/dc/elements/1.1/" xmlns:cc="http://creativecommons.org/ns#" xmlns:rdf="http://www.w3.org/1999/02/22-rdf-syntax-ns#" xmlns:svg="http://www.w3.org/2000/svg" xmlns:sodipodi="http://sodipodi.sourceforge.net/DTD/sodipodi-0.dtd" xmlns:inkscape="http://www.inkscape.org/namespaces/inkscape"
	 xmlns="http://www.w3.org/2000/svg" xmlns:xlink="http://www.w3.org/1999/xlink" x="0px" y="0px" width="144px" height="364.25px"
	 viewBox="0 0 144 364.25" enable-background="new 0 0 144 364.25" xml:space="preserve">
<sodipodi:namedview  fit-margin-right="0" inkscape:window-maximized="0" inkscape:window-height="1422" inkscape:snap-bbox="true" fit-margin-bottom="0" inkscape:bbox-nodes="true" inkscape:window-width="2560" inkscape:current-layer="layer1" inkscape:window-y="18" inkscape:pageopacity="0.0" inkscape:window-x="0" inkscape:document-units="mm" inkscape:pageshadow="2" inkscape:zoom="1.979899" pagecolor="#ffffff" borderopacity="1.0" id="base" inkscape:cy="226.43862" fit-margin-left="0" bordercolor="#666666" showgrid="false" fit-margin-top="0" inkscape:cx="167.89643">
	</sodipodi:namedview>
<g id="layer2" inkscape:groupmode="layer" inkscape:label="widgets" display="none">
	<rect id="rect155872" x="54" y="59.984" display="inline" fill="#FF0000" fill-opacity="0.502" width="36" height="36"/>
	
		<rect id="rect155883" x="16.723" y="125.664" display="inline" fill="#FF0000" fill-opacity="0.502" width="8.504" height="76.535"/>
	
		<rect id="rect155885" x="50.738" y="125.664" display="inline" fill="#FF0000" fill-opacity="0.502" width="8.504" height="76.535"/>
	
		<rect id="rect155887" x="84.754" y="125.664" display="inline" fill="#FF0000" fill-opacity="0.502" width="8.504" height="76.535"/>
	
		<rect id="rect155889" x="118.773" y="125.664" display="inline" fill="#FF0000" fill-opacity="0.502" width="8.504" height="76.535"/>
	
		<rect id="rect155891" x="9.336" y="66.344" display="inline" fill="#00FF00" fill-opacity="0.502" width="23.281" height="23.277"/>
	
		<rect id="rect155893" x="111.383" y="66.344" display="inline" fill="#00FF00" fill-opacity="0.502" width="23.281" height="23.277"/>
	
		<rect id="rect155895" x="9.336" y="222.609" display="inline" fill="#00FF00" fill-opacity="0.502" width="23.281" height="23.271"/>
	
		<rect id="rect155897" x="9.336" y="265.129" display="inline" fill="#00FF00" fill-opacity="0.502" width="23.281" height="23.277"/>
	
		<rect id="rect155911" x="9.336" y="307.648" display="inline" fill="#0000FF" fill-opacity="0.502" width="23.281" height="23.271"/>
	
		<rect id="rect155913" x="43.352" y="222.609" display="inline" fill="#00FF00" fill-opacity="0.502" width="23.281" height="23.271"/>
	
		<rect id="rect155915" x="43.352" y="265.129" display="inline" fill="#00FF00" fill-opacity="0.502" width="23.281" height="23.277"/>
	
		<rect id="rect155917" x="43.352" y="307.648" display="inline" fill="#0000FF" fill-opacity="0.502" width="23.281" height="23.271"/>
	
		<rect id="rect155919" x="77.367" y="222.609" display="inline" fill="#00FF00" fill-opacity="0.502" width="23.281" height="23.271"/>
	
		<rect id="rect155921" x="77.367" y="265.129" display="inline" fill="#00FF00" fill-opacity="0.502" width="23.281" height="23.277"/>
	
		<rect id="rect155923" x="77.367" y="307.648" display="inline" fill="#0000FF" fill-opacity="0.502" width="23.281" height="23.271"/>
	
		<rect id="rect155925" x="111.383" y="222.609" display="inline" fill="#00FF00" fill-opacity="0.502" width="23.281" height="23.271"/>
	
		<rect id="rect155927" x="111.383" y="265.129" display="inline" fill="#00FF00" fill-opacity="0.502" width="23.281" height="23.277"/>
	
		<rect id="rect155929" x="111.383" y="307.648" display="inline" fill="#0000FF" fill-opacity="0.502" width="23.281" height="23.271"/>
</g>
<g>
	<path fill="#FFFFFF" stroke="#FFFFFF" stroke-width="4" stroke-miterlimit="10" d="M77.209,199.682
		c1.014-2.16,2.307-4.428,3.125-6.854c0.443-1.318,0.079-2.91,0.079-4.729c-1.021,0.416-1.742,0.676-2.435,0.998
		c-7.806,3.629-15.752,6.863-24.179,8.771c-3.281,0.742-6.598,1.139-9.962,0.505c-2.292-0.435-2.8-1.028-2.972-3.332
		c-0.054-0.729-0.309-1.458-0.557-2.155c-0.468-1.313-0.297-2.441,0.771-3.4c0.882-0.791,1.415-1.686,1.421-2.982
		c0.007-1.539,1.286-2.521,2.829-2.387c0.74,0.062,1.473,0.266,2.196,0.453c0.675,0.177,1.326,0.441,2,0.625
		c3.756,1.021,5.469,0.262,7.218-3.261c2.517,1.587,0.562,3.809,0.866,5.935c7.808-0.165,14.947-2.975,22.215-5.219
		c-0.011-0.13-0.019-0.263-0.025-0.396c-0.292-0.058-0.582-0.153-0.877-0.167c-3.653-0.188-6.908-1.416-9.807-3.657
		c-0.734-0.568-1.581-1.021-2.433-1.399c-1.085-0.482-1.569-1.038-1.426-2.395c0.1-0.95-0.441-2.103-1.011-2.955
		c-0.787-1.177-0.752-2.302-0.753-3.648c-0.002-4.901,1.866-9.365,2.831-14.036c0.419-2.031-0.011-4.24-0.078-6.367
		c-0.015-0.481-0.122-0.959-0.234-1.793c3.555,2.198,6.814,4.666,11.001,3.347c4.098-1.29,5.826-4.859,7.561-8.527
		c2.689,9.324,7.383,16.99,16.638,21.345c-2.241,2.106-3.655,4.341-3.438,7.437c2.43-0.677,4.644-1.47,6.926-1.883
		c2.888-0.523,5.83-0.746,8.751-1.075c0.39-0.044,0.839-0.055,1.181,0.097c0.367,0.162,0.639,0.536,0.953,0.817
		c-0.32,0.319-0.607,0.864-0.969,0.918c-1.678,0.251-3.385,0.297-5.062,0.546c-3.255,0.482-6.498,1.042-9.742,1.598
		c-0.365,0.062-0.699,0.302-1.049,0.46c0.031,0.182,0.064,0.363,0.098,0.545c0.549,0,1.104,0.069,1.642-0.011
		c4.438-0.664,8.871-1.351,13.306-2.047c0.539-0.085,1.064-0.386,1.596-0.38c0.729,0.008,1.979,0.038,2.088,0.364
		c0.381,1.148-0.706,1.593-1.559,1.722c-3.494,0.526-6.996,1.21-10.513,1.32c-7.351,0.231-5.771-0.455-11.298,4.347
		c-1.824,1.586-3.934,2.847-6.08,4.379c1.986,1.896,2.684,4.614,3.227,7.417c0.09,0.459,0.604,0.869,0.99,1.229
		c1.312,1.219,2.74,2.323,3.975,3.618c2.549,2.679,3.066,7.788,0.889,10.552c-0.294,0.373-0.432,0.868-0.811,1.659
		c1.276,0.188,2.326,0.479,3.373,0.472c6.246-0.047,12.492-0.312,18.733-0.19c2.752,0.053,5.535,0.671,8.208,1.388
		c0.941,0.254,1.955,1.436,2.311,2.42c0.588,1.631-0.607,3.069-2.354,2.945c-2.125-0.15-4.3-0.366-6.324-0.979
		c-4.98-1.508-10.021-2.138-15.221-1.998c-3.062,0.082-6.143-0.306-9.312-0.484c0.213,1.499,1.334,2.432,2.727,2.83
		c1.516,0.436,3.135,0.632,4.713,0.658c0.68,0.011,1.436-0.586,2.045-1.051c1.336-1.013,2.18-1.035,3.443,0.092
		c2.348,2.082,3.48,4.88,3.623,7.83c0.139,2.793-0.34,5.654-0.864,8.427c-0.351,1.841-1.417,3.594-3.507,3.868
		c-2.057,0.271-3.525-1.078-4.479-2.73c-0.732-1.273-1.035-2.787-1.646-4.143c-0.25-0.559-0.719-1.26-1.236-1.42
		c-6.249-1.928-10.74-6.01-14.15-11.414c-0.826-1.309-1.83-2.291-3.36-2.494c-2.993-0.399-6.003-0.693-9.407-1.076
		c0.562,1.58,0.967,2.686,1.348,3.8c0.578,1.699,1.313,3.369,1.664,5.115c0.506,2.513-0.816,3.97-3.367,3.847
		c-1.178-0.057-2.402-0.285-3.492-0.721c-4.337-1.732-7.785-4.65-10.507-8.404c-0.689-0.949-1.175-2.092-1.545-3.215
		c-0.611-1.852,0.517-3.291,2.476-3.27c0.83,0.01,1.658,0.16,2.295,0.229c-0.171-2.224-0.454-4.438-0.484-6.656
		c-0.039-2.832,1.658-4.233,4.375-3.418C70.043,196.984,73.611,198.404,77.209,199.682z M84.779,160.558
		c0.188-2.517-0.66-5.198-3.174-7.138c-3.219-2.483-8.278-1.09-10.435,2.93c-2.054,3.833-2.375,8.002-1.897,12.242
		c0.211,1.872,1.221,3.324,3.105,3.847c2.688,0.747,5.355,0.733,7.75-0.968C83.689,168.939,84.797,165.28,84.779,160.558z
		 M70.034,177.652c1.932,1.702,5.256,2.962,8.149,3.329c3.758,0.476,7.002-0.461,9.416-3.358c1.379-1.655,2.301-3.688,3.461-5.53
		c0.308-0.487,0.734-0.897,1.106-1.342c0.131,0.103,0.265,0.206,0.396,0.309c0.299,3.315-2.418,5.172-3.989,7.717
		c0.3-0.02,0.473,0.022,0.565-0.045c2.693-1.938,4.688-4.388,5.094-7.773c0.216-1.785-0.496-3.415-2.09-4.354
		c-1.457-0.86-3.039-0.602-4.351,0.41c-1.772,1.371-3.454,2.865-5.149,4.333c-2.104,1.822-4.432,2.954-7.312,2.958
		c-2.73,0.004-4.905-1.017-6.372-2.709c-0.834,0.719-1.618,1.394-2.438,2.099c0.692-0.04,1.334-0.098,1.978-0.109
		c1.21-0.021,2.525,0.211,2.774,1.483C71.411,175.763,70.55,176.65,70.034,177.652z M68.862,157.081
		c-1.522-0.245-2.173,0.707-2.479,1.671c-0.692,2.174-1.189,4.41-1.725,6.631c-0.245,1.016-0.008,1.78,0.836,2.619
		c0.593,0.589,0.582,1.843,0.711,2.817c0.05,0.376-0.256,0.801-0.466,1.389c1.645-0.67,2.094-1.875,2.213-3.264
		c0.317-3.674,0.609-7.35,0.908-11.024C68.879,157.68,68.862,157.438,68.862,157.081z"/>
	<path fill="#FFFFFF" stroke="#FFFFFF" stroke-width="4" stroke-miterlimit="10" d="M52.401,199.327
		c-5.308,6.581-14.745,9.099-22.947,6.319c-8.483-2.875-14.334-10.726-14.53-19.871c-0.186-8.613,4.969-17.531,15.36-21.002
		c-0.858-3.315,0.941-5.746,2.881-8.183c1.573-1.977,1.792-4.382,1.721-6.82c-0.026-0.881,0.123-1.511,1.28-1.555
		c1.327-0.049,1.825,0.322,1.864,1.744c0.082,2.984-0.924,5.438-2.917,7.607c-1.457,1.587-2.852,3.26-2.7,5.64
		c0.019,0.292,0.073,0.58,0.105,0.823c1.843,0,3.63-0.135,5.39,0.024c7.353,0.665,13.028,4.126,16.876,10.46
		c1.487,2.449,1.749,5.077,0.699,7.762c-0.789,2.018-2.292,2.831-4.423,2.366c-1.557-0.339-3.062-0.916-4.619-1.252
		c-2.955-0.64-4.56,0.563-4.993,3.551c-0.074,0.514-0.373,1.004-0.628,1.473c-0.139,0.254-0.401,0.439-0.611,0.652
		c-2.588,2.643-0.262,5.418-0.05,8.07c0.138,1.721,2.192,2.221,3.817,2.293c2.439,0.108,4.888-0.014,7.333-0.042
		C51.588,199.384,51.866,199.357,52.401,199.327z"/>
	<path fill="#FFFFFF" stroke="#FFFFFF" stroke-width="4" stroke-miterlimit="10" d="M39.413,144.304
		c2.777-4.527,6.553-7.944,11.416-10.336c0.343,0.374,0.697,0.76,1.203,1.312C47.239,137.6,42.918,140.378,39.413,144.304z"/>
	<path fill="#FFFFFF" stroke="#FFFFFF" stroke-width="4" stroke-miterlimit="10" d="M54.858,141.287
		c0.05,0.638,0.085,1.068,0.092,1.155c-4.911,1.346-9.668,2.65-14.619,4.006C44.778,143.525,49.494,141.834,54.858,141.287z"/>
	<path fill="#FFFFFF" stroke="#FFFFFF" stroke-width="4" stroke-miterlimit="10" d="M52.935,137.063c0.36,0.539,0.656,0.98,1.07,1.6
		c-5.134,1.268-9.761,3.312-13.77,6.628C43.549,141.223,47.935,138.829,52.935,137.063z"/>
	<path fill="#FFFFFF" stroke="#FFFFFF" stroke-width="4" stroke-miterlimit="10" d="M55.135,145.157c0,0.561,0,0.995,0,1.27
		c-4.767,0.468-9.488,0.932-14.21,1.396C45.411,145.794,50.154,145.09,55.135,145.157z"/>
	<path fill="#FFFFFF" stroke="#FFFFFF" stroke-width="4" stroke-miterlimit="10" d="M38.417,143.128
		c0.324-0.807,0.619-1.627,0.977-2.418c1.38-3.047,3.35-5.654,5.873-7.852c0.727-0.634,1.367-0.769,2.083,0.222
		c-3.771,2.616-6.398,6.196-8.443,10.259C38.743,143.269,38.58,143.198,38.417,143.128z"/>
	<path fill="#FFFFFF" stroke="#FFFFFF" stroke-width="4" stroke-miterlimit="10" d="M64.605,173.812
		c-0.311,0.296-0.588,0.795-0.938,0.852c-1.269,0.208-2.562,0.341-3.847,0.338c-0.406-0.001-0.812-0.52-1.217-0.801
		c0.389-0.264,0.767-0.731,1.17-0.756c1.523-0.09,3.055-0.036,4.583-0.036C64.439,173.543,64.522,173.677,64.605,173.812z"/>
	<path fill="#FFFFFF" stroke="#FFFFFF" stroke-width="4" stroke-miterlimit="10" d="M37.41,143.969
		c-0.287-3.372,0.78-6.714,2.249-7.104C38.933,139.159,38.23,141.376,37.41,143.969z"/>
	<path fill="#FFFFFF" stroke="#FFFFFF" stroke-width="4" stroke-miterlimit="10" d="M28.554,149.974
		c-0.133-1.613,2.521-3.164,5.502-3.081C32.104,147.986,30.333,148.978,28.554,149.974z"/>
	<path fill="#FFFFFF" stroke="#FFFFFF" stroke-width="4" stroke-miterlimit="10" d="M64.253,172.979
		c-1.852-0.095-3.361-0.172-5.125-0.263C60.471,171.011,62.938,171.131,64.253,172.979z"/>
	<path fill="#FFFFFF" stroke="#FFFFFF" stroke-width="4" stroke-miterlimit="10" d="M37.21,138.065
		c-0.205,2.151-0.409,4.302-0.607,6.388C35.879,143.41,36.006,139.39,37.21,138.065z"/>
	<path fill="#FFFFFF" stroke="#FFFFFF" stroke-width="4" stroke-miterlimit="10" d="M34.158,145.89
		c-1.635-0.442-3.049-0.824-4.704-1.271C31.049,143.851,32.84,144.362,34.158,145.89z"/>
	<path fill="#FFFFFF" stroke="#FFFFFF" stroke-width="4" stroke-miterlimit="10" d="M33.148,140.079
		c0.567,1.694,1.023,3.056,1.562,4.661C33.122,143.432,32.474,141.628,33.148,140.079z"/>
	<path fill="#FFFFFF" stroke="#FFFFFF" stroke-width="4" stroke-miterlimit="10" d="M35.45,143.577
		c-0.753-1.233-0.899-2.473-0.438-3.715c0.146-0.003,0.292-0.006,0.438-0.01C35.45,141.094,35.45,142.335,35.45,143.577z"/>
	<path fill="#FFFFFF" stroke="#FFFFFF" stroke-width="4" stroke-miterlimit="10" d="M84.779,160.558
		c0.018,4.723-1.09,8.382-4.648,10.914c-2.393,1.702-5.061,1.715-7.75,0.968c-1.884-0.523-2.894-1.975-3.105-3.847
		c-0.478-4.24-0.157-8.409,1.897-12.242c2.154-4.02,7.214-5.414,10.433-2.93C84.119,155.359,84.967,158.041,84.779,160.558z
		 M74.279,168.665c0.096-1.316-0.387-2.462-1.625-3.035c-0.442-0.205-1.327-0.005-1.721,0.339c-1.083,0.95-0.921,2.258-0.489,3.461
		c0.363,1.008,1.02,2.022,2.242,1.804C73.934,171.011,74.348,169.938,74.279,168.665z"/>
	<path fill="#FFFFFF" stroke="#FFFFFF" stroke-width="4" stroke-miterlimit="10" d="M70.034,177.652
		c0.516-1.002,1.377-1.89,1.241-2.582c-0.249-1.272-1.564-1.505-2.774-1.483c-0.644,0.012-1.286,0.069-1.978,0.109
		c0.819-0.706,1.603-1.38,2.438-2.099c1.466,1.692,3.639,2.713,6.372,2.709c2.881-0.004,5.206-1.136,7.312-2.958
		c1.696-1.468,3.377-2.962,5.15-4.333c1.311-1.012,2.893-1.271,4.35-0.41c1.594,0.939,2.307,2.569,2.09,4.354
		c-0.405,3.385-2.397,5.835-5.094,7.773c-0.094,0.068-0.267,0.025-0.564,0.045c1.57-2.545,4.287-4.402,3.988-7.717
		c-0.131-0.103-0.264-0.206-0.395-0.309c-0.372,0.445-0.801,0.855-1.107,1.342c-1.16,1.842-2.082,3.875-3.461,5.53
		c-2.414,2.896-5.658,3.834-9.416,3.358C75.29,180.615,71.966,179.354,70.034,177.652z"/>
	<path fill="#FFFFFF" stroke="#FFFFFF" stroke-width="4" stroke-miterlimit="10" d="M68.862,157.081
		c0,0.356,0.017,0.599-0.002,0.839c-0.298,3.675-0.591,7.351-0.908,11.024c-0.12,1.388-0.569,2.593-2.213,3.264
		c0.21-0.588,0.517-1.013,0.466-1.389c-0.129-0.974-0.118-2.228-0.711-2.817c-0.844-0.838-1.081-1.603-0.836-2.619
		c0.536-2.221,1.033-4.458,1.725-6.631C66.689,157.788,67.34,156.836,68.862,157.081z"/>
	<path fill="#FFFFFF" stroke="#FFFFFF" stroke-width="4" stroke-miterlimit="10" d="M74.279,168.665
		c0.066,1.272-0.346,2.346-1.594,2.57c-1.223,0.218-1.878-0.796-2.243-1.804c-0.432-1.204-0.595-2.512,0.489-3.461
		c0.394-0.345,1.278-0.544,1.72-0.339C73.893,166.203,74.375,167.349,74.279,168.665z"/>
</g>
<g>
	<path d="M77.209,199.682c1.014-2.16,2.307-4.428,3.125-6.854c0.443-1.318,0.079-2.91,0.079-4.729
		c-1.021,0.416-1.742,0.676-2.435,0.998c-7.806,3.629-15.752,6.863-24.179,8.771c-3.281,0.742-6.598,1.139-9.962,0.505
		c-2.292-0.435-2.8-1.028-2.972-3.332c-0.054-0.729-0.309-1.458-0.557-2.155c-0.468-1.313-0.297-2.441,0.771-3.4
		c0.882-0.791,1.415-1.686,1.421-2.982c0.007-1.539,1.286-2.521,2.829-2.387c0.74,0.062,1.473,0.266,2.196,0.453
		c0.675,0.177,1.326,0.441,2,0.625c3.756,1.021,5.469,0.262,7.218-3.261c2.517,1.587,0.562,3.809,0.866,5.935
		c7.808-0.165,14.947-2.975,22.215-5.219c-0.011-0.13-0.019-0.263-0.025-0.396c-0.292-0.058-0.582-0.153-0.877-0.167
		c-3.653-0.188-6.908-1.416-9.807-3.657c-0.734-0.568-1.581-1.021-2.433-1.399c-1.085-0.482-1.569-1.038-1.426-2.395
		c0.1-0.95-0.441-2.103-1.011-2.955c-0.787-1.177-0.752-2.302-0.753-3.648c-0.002-4.901,1.866-9.365,2.831-14.036
		c0.419-2.031-0.011-4.24-0.078-6.367c-0.015-0.481-0.122-0.959-0.234-1.793c3.555,2.198,6.814,4.666,11.001,3.347
		c4.098-1.29,5.826-4.859,7.561-8.527c2.689,9.324,7.383,16.99,16.638,21.345c-2.241,2.106-3.655,4.341-3.438,7.437
		c2.43-0.677,4.644-1.47,6.926-1.883c2.888-0.523,5.83-0.746,8.751-1.075c0.39-0.044,0.839-0.055,1.181,0.097
		c0.367,0.162,0.639,0.536,0.953,0.817c-0.32,0.319-0.607,0.864-0.969,0.918c-1.678,0.251-3.385,0.297-5.062,0.546
		c-3.255,0.482-6.498,1.042-9.742,1.598c-0.365,0.062-0.699,0.302-1.049,0.46c0.031,0.182,0.064,0.363,0.098,0.545
		c0.549,0,1.104,0.069,1.642-0.011c4.438-0.664,8.871-1.351,13.306-2.047c0.539-0.085,1.064-0.386,1.596-0.38
		c0.729,0.008,1.979,0.038,2.088,0.364c0.381,1.148-0.706,1.593-1.559,1.722c-3.494,0.526-6.996,1.21-10.513,1.32
		c-7.351,0.231-5.771-0.455-11.298,4.347c-1.824,1.586-3.934,2.847-6.08,4.379c1.986,1.896,2.684,4.614,3.227,7.417
		c0.09,0.459,0.604,0.869,0.99,1.229c1.312,1.219,2.74,2.323,3.975,3.618c2.549,2.679,3.066,7.788,0.889,10.552
		c-0.294,0.373-0.432,0.868-0.811,1.659c1.276,0.188,2.326,0.479,3.373,0.472c6.246-0.047,12.492-0.312,18.733-0.19
		c2.752,0.053,5.535,0.671,8.208,1.388c0.941,0.254,1.955,1.436,2.311,2.42c0.588,1.631-0.607,3.069-2.354,2.945
		c-2.125-0.15-4.3-0.366-6.324-0.979c-4.98-1.508-10.021-2.138-15.221-1.998c-3.062,0.082-6.143-0.306-9.312-0.484
		c0.213,1.499,1.334,2.432,2.727,2.83c1.516,0.436,3.135,0.632,4.713,0.658c0.68,0.011,1.436-0.586,2.045-1.051
		c1.336-1.013,2.18-1.035,3.443,0.092c2.348,2.082,3.48,4.88,3.623,7.83c0.139,2.793-0.34,5.654-0.864,8.427
		c-0.351,1.841-1.417,3.594-3.507,3.868c-2.057,0.271-3.525-1.078-4.479-2.73c-0.732-1.273-1.035-2.787-1.646-4.143
		c-0.25-0.559-0.719-1.26-1.236-1.42c-6.249-1.928-10.74-6.01-14.15-11.414c-0.826-1.309-1.83-2.291-3.36-2.494
		c-2.993-0.399-6.003-0.693-9.407-1.076c0.562,1.58,0.967,2.686,1.348,3.8c0.578,1.699,1.313,3.369,1.664,5.115
		c0.506,2.513-0.816,3.97-3.367,3.847c-1.178-0.057-2.402-0.285-3.492-0.721c-4.337-1.732-7.785-4.65-10.507-8.404
		c-0.689-0.949-1.175-2.092-1.545-3.215c-0.611-1.852,0.517-3.291,2.476-3.27c0.83,0.01,1.658,0.16,2.295,0.229
		c-0.171-2.224-0.454-4.438-0.484-6.656c-0.039-2.832,1.658-4.233,4.375-3.418C70.043,196.984,73.611,198.404,77.209,199.682z
		 M84.779,160.558c0.188-2.517-0.66-5.198-3.174-7.138c-3.219-2.483-8.278-1.09-10.435,2.93c-2.054,3.833-2.375,8.002-1.897,12.242
		c0.211,1.872,1.221,3.324,3.105,3.847c2.688,0.747,5.355,0.733,7.75-0.968C83.689,168.939,84.797,165.28,84.779,160.558z
		 M70.034,177.652c1.932,1.702,5.256,2.962,8.149,3.329c3.758,0.476,7.002-0.461,9.416-3.358c1.379-1.655,2.301-3.688,3.461-5.53
		c0.308-0.487,0.734-0.897,1.106-1.342c0.131,0.103,0.265,0.206,0.396,0.309c0.299,3.315-2.418,5.172-3.989,7.717
		c0.3-0.02,0.473,0.022,0.565-0.045c2.693-1.938,4.688-4.388,5.094-7.773c0.216-1.785-0.496-3.415-2.09-4.354
		c-1.457-0.86-3.039-0.602-4.351,0.41c-1.772,1.371-3.454,2.865-5.149,4.333c-2.104,1.822-4.432,2.954-7.312,2.958
		c-2.73,0.004-4.905-1.017-6.372-2.709c-0.834,0.719-1.618,1.394-2.438,2.099c0.692-0.04,1.334-0.098,1.978-0.109
		c1.21-0.021,2.525,0.211,2.774,1.483C71.411,175.763,70.55,176.65,70.034,177.652z M68.862,157.081
		c-1.522-0.245-2.173,0.707-2.479,1.671c-0.692,2.174-1.189,4.41-1.725,6.631c-0.245,1.016-0.008,1.78,0.836,2.619
		c0.593,0.589,0.582,1.843,0.711,2.817c0.05,0.376-0.256,0.801-0.466,1.389c1.645-0.67,2.094-1.875,2.213-3.264
		c0.317-3.674,0.609-7.35,0.908-11.024C68.879,157.68,68.862,157.438,68.862,157.081z"/>
	<path d="M52.401,199.327c-5.308,6.581-14.745,9.099-22.947,6.319c-8.483-2.875-14.334-10.726-14.53-19.871
		c-0.186-8.613,4.969-17.531,15.36-21.002c-0.858-3.315,0.941-5.746,2.881-8.183c1.573-1.977,1.792-4.382,1.721-6.82
		c-0.026-0.881,0.123-1.511,1.28-1.555c1.327-0.049,1.825,0.322,1.864,1.744c0.082,2.984-0.924,5.438-2.917,7.607
		c-1.457,1.587-2.852,3.26-2.7,5.64c0.019,0.292,0.073,0.58,0.105,0.823c1.843,0,3.63-0.135,5.39,0.024
		c7.353,0.665,13.028,4.126,16.876,10.46c1.487,2.449,1.749,5.077,0.699,7.762c-0.789,2.018-2.292,2.831-4.423,2.366
		c-1.557-0.339-3.062-0.916-4.619-1.252c-2.955-0.64-4.56,0.563-4.993,3.551c-0.074,0.514-0.373,1.004-0.628,1.473
		c-0.139,0.254-0.401,0.439-0.611,0.652c-2.588,2.643-0.262,5.418-0.05,8.07c0.138,1.721,2.192,2.221,3.817,2.293
		c2.439,0.108,4.888-0.014,7.333-0.042C51.588,199.384,51.866,199.357,52.401,199.327z"/>
	<path d="M39.413,144.304c2.777-4.527,6.553-7.944,11.416-10.336c0.343,0.374,0.697,0.76,1.203,1.312
		C47.239,137.6,42.918,140.378,39.413,144.304z"/>
	<path d="M54.858,141.287c0.05,0.638,0.085,1.068,0.092,1.155c-4.911,1.346-9.668,2.65-14.619,4.006
		C44.778,143.525,49.494,141.834,54.858,141.287z"/>
	<path d="M52.935,137.063c0.36,0.539,0.656,0.98,1.07,1.6c-5.134,1.268-9.761,3.312-13.77,6.628
		C43.549,141.223,47.935,138.829,52.935,137.063z"/>
	<path d="M55.135,145.157c0,0.561,0,0.995,0,1.27c-4.767,0.468-9.488,0.932-14.21,1.396
		C45.411,145.794,50.154,145.09,55.135,145.157z"/>
	<path d="M38.417,143.128c0.324-0.807,0.619-1.627,0.977-2.418c1.38-3.047,3.35-5.654,5.873-7.852
		c0.727-0.634,1.367-0.769,2.083,0.222c-3.771,2.616-6.398,6.196-8.443,10.259C38.743,143.269,38.58,143.198,38.417,143.128z"/>
	<path d="M64.605,173.812c-0.311,0.296-0.588,0.795-0.938,0.852c-1.269,0.208-2.562,0.341-3.847,0.338
		c-0.406-0.001-0.812-0.52-1.217-0.801c0.389-0.264,0.767-0.731,1.17-0.756c1.523-0.09,3.055-0.036,4.583-0.036
		C64.439,173.543,64.522,173.677,64.605,173.812z"/>
	<path d="M37.41,143.969c-0.287-3.372,0.78-6.714,2.249-7.104C38.933,139.159,38.23,141.376,37.41,143.969z"/>
	<path d="M28.554,149.974c-0.133-1.613,2.521-3.164,5.502-3.081C32.104,147.986,30.333,148.978,28.554,149.974z"/>
	<path d="M64.253,172.979c-1.852-0.095-3.361-0.172-5.125-0.263C60.471,171.011,62.938,171.131,64.253,172.979z"/>
	<path d="M37.21,138.065c-0.205,2.151-0.409,4.302-0.607,6.388C35.879,143.41,36.006,139.39,37.21,138.065z"/>
	<path d="M34.158,145.89c-1.635-0.442-3.049-0.824-4.704-1.271C31.049,143.851,32.84,144.362,34.158,145.89z"/>
	<path d="M33.148,140.079c0.567,1.694,1.023,3.056,1.562,4.661C33.122,143.432,32.474,141.628,33.148,140.079z"/>
	<path d="M35.45,143.577c-0.753-1.233-0.899-2.473-0.438-3.715c0.146-0.003,0.292-0.006,0.438-0.01
		C35.45,141.094,35.45,142.335,35.45,143.577z"/>
	<path fill="#FFFFFF" d="M84.779,160.558c0.018,4.723-1.09,8.382-4.648,10.914c-2.393,1.702-5.061,1.715-7.75,0.968
		c-1.884-0.523-2.894-1.975-3.105-3.847c-0.478-4.24-0.157-8.409,1.897-12.242c2.154-4.02,7.214-5.414,10.433-2.93
		C84.119,155.359,84.967,158.041,84.779,160.558z M74.279,168.665c0.096-1.316-0.387-2.462-1.625-3.035
		c-0.442-0.205-1.327-0.005-1.721,0.339c-1.083,0.95-0.921,2.258-0.489,3.461c0.363,1.008,1.02,2.022,2.242,1.804
		C73.934,171.011,74.348,169.938,74.279,168.665z"/>
	<path fill="#FFFFFF" d="M70.034,177.652c0.516-1.002,1.377-1.89,1.241-2.582c-0.249-1.272-1.564-1.505-2.774-1.483
		c-0.644,0.012-1.286,0.069-1.978,0.109c0.819-0.706,1.603-1.38,2.438-2.099c1.466,1.692,3.639,2.713,6.372,2.709
		c2.881-0.004,5.206-1.136,7.312-2.958c1.696-1.468,3.377-2.962,5.15-4.333c1.311-1.012,2.893-1.271,4.35-0.41
		c1.594,0.939,2.307,2.569,2.09,4.354c-0.405,3.385-2.397,5.835-5.094,7.773c-0.094,0.068-0.267,0.025-0.564,0.045
		c1.57-2.545,4.287-4.402,3.988-7.717c-0.131-0.103-0.264-0.206-0.395-0.309c-0.372,0.445-0.801,0.855-1.107,1.342
		c-1.16,1.842-2.082,3.875-3.461,5.53c-2.414,2.896-5.658,3.834-9.416,3.358C75.29,180.615,71.966,179.354,70.034,177.652z"/>
	<path fill="#FFFFFF" d="M68.862,157.081c0,0.356,0.017,0.599-0.002,0.839c-0.298,3.675-0.591,7.351-0.908,11.024
		c-0.12,1.388-0.569,2.593-2.213,3.264c0.21-0.588,0.517-1.013,0.466-1.389c-0.129-0.974-0.118-2.228-0.711-2.817
		c-0.844-0.838-1.081-1.603-0.836-2.619c0.536-2.221,1.033-4.458,1.725-6.631C66.689,157.788,67.34,156.836,68.862,157.081z"/>
	<path d="M74.279,168.665c0.066,1.272-0.346,2.346-1.594,2.57c-1.223,0.218-1.878-0.796-2.243-1.804
		c-0.432-1.204-0.595-2.512,0.489-3.461c0.394-0.345,1.278-0.544,1.72-0.339C73.893,166.203,74.375,167.349,74.279,168.665z"/>
</g>
<g>
	<path fill="#FFFFFF" d="M7.141,293.339c-0.675,0-1.323-0.269-1.802-0.745c-0.494-0.492-0.764-1.166-0.749-1.861l0.324-14.84
		l0.243-10.177c0.033-1.394,0.083-2.94,0.147-4.64c0.053-1.372,1.181-2.454,2.548-2.454c0.017,0,0.033,0,0.05,0.001
		c0.122,0.002,0.241,0.014,0.358,0.031H8.81c0.249,0,0.536-0.004,0.864-0.014c0.381-0.012,0.768-0.019,1.161-0.019
		c0.79-0.02,1.749-0.052,2.815-0.095c0.034-0.001,0.068-0.002,0.102-0.002c0.4,0,0.792,0.094,1.144,0.271
		c0.196-0.141,0.397-0.27,0.603-0.388c0.777-0.444,1.604-0.67,2.457-0.67c0.144,0,0.288,0.006,0.433,0.02
		c0.636,0.039,1.379,0.268,2.269,0.712c0.983,0.492,1.837,1.305,2.613,2.485c0.686,1.043,1.228,2.398,1.658,4.145
		c0.415,1.685,0.582,3.783,0.51,6.414c-0.008,0.215-0.018,0.426-0.028,0.635c0.07,0.002,0.154,0.006,0.214,0.012
		c0.62,0.06,1.189,0.286,1.666,0.657c0.46,0.358,0.82,0.849,1.04,1.417c0.237,0.62,0.279,1.275,0.128,1.911
		c-0.031,0.166-0.105,0.582-0.222,1.248c-0.149,0.847-0.367,1.868-0.648,3.038c-0.284,1.181-0.645,2.453-1.073,3.782
		c-0.454,1.411-1.009,2.739-1.648,3.945c-0.702,1.323-1.537,2.446-2.482,3.335c-1.169,1.104-2.588,1.687-4.099,1.687
		c-0.092,0-0.185-0.003-0.278-0.007c-1.119-0.049-2.188-0.561-3.171-1.518c-0.381,0.896-1.259,1.527-2.287,1.553
		C12.548,293.209,7.162,293.339,7.141,293.339z"/>
	<path fill="#FFFFFF" d="M8.129,261.206c0.183,0,0.41,0,0.68,0s0.583-0.005,0.939-0.017c0.356-0.01,0.718-0.016,1.085-0.016
		c0.864-0.021,1.836-0.055,2.917-0.098l-0.195,4.051c0.238-0.648,0.519-1.27,0.842-1.863c0.324-0.594,0.686-1.118,1.085-1.572
		c0.4-0.453,0.826-0.809,1.28-1.068s0.918-0.367,1.394-0.324c0.345,0.021,0.798,0.174,1.361,0.453
		c0.562,0.281,1.102,0.816,1.62,1.604c0.518,0.788,0.956,1.906,1.312,3.353c0.356,1.448,0.502,3.359,0.438,5.735
		c-0.065,1.75-0.249,3.272-0.551,4.568c-0.303,1.296-0.681,2.403-1.134,3.321c-0.454,0.919-0.972,1.668-1.555,2.252
		c-0.583,0.583-1.177,1.036-1.782,1.361c0.194,0.453,0.399,0.906,0.615,1.359c0.216,0.454,0.443,0.859,0.681,1.216
		c0.237,0.356,0.48,0.638,0.729,0.843c0.248,0.205,0.491,0.286,0.729,0.242c0.345-0.043,0.691-0.361,1.037-0.955
		c0.345-0.595,0.681-1.318,1.004-2.172c0.324-0.852,0.626-1.771,0.907-2.753c0.28-0.983,0.529-1.901,0.745-2.755
		c0.216-0.853,0.394-1.576,0.535-2.171c0.141-0.593,0.232-0.923,0.275-0.987c0.065-0.086,0.156-0.125,0.275-0.113
		c0.118,0.011,0.227,0.055,0.324,0.129c0.097,0.076,0.172,0.185,0.227,0.324c0.054,0.141,0.06,0.287,0.016,0.438
		c-0.021,0.108-0.103,0.562-0.243,1.361c-0.141,0.799-0.346,1.76-0.616,2.883c-0.271,1.123-0.61,2.322-1.021,3.597
		c-0.411,1.274-0.902,2.452-1.475,3.531c-0.572,1.081-1.23,1.972-1.976,2.673c-0.745,0.702-1.583,1.031-2.511,0.988
		c-0.497-0.021-1.016-0.303-1.556-0.842c-0.54-0.54-1.059-1.167-1.555-1.879c-0.497-0.713-0.945-1.432-1.345-2.154
		c-0.4-0.725-0.696-1.303-0.891-1.734l-0.292,6.643l-5.346,0.129l0.324-14.84c0.043-1.856,0.086-3.67,0.13-5.442
		c0.043-1.771,0.081-3.348,0.113-4.73c0.033-1.382,0.081-2.916,0.146-4.601C7.854,261.195,7.946,261.206,8.129,261.206z
		 M12.973,267.524c0.108-0.799,0.302-1.599,0.583-2.397l-0.129,3.401l-0.518,12.28c0.129-0.043,0.291-0.065,0.486-0.065
		c0.389-0.021,0.783-0.302,1.183-0.842c0.399-0.54,0.756-1.253,1.069-2.139c0.312-0.886,0.561-1.906,0.745-3.062
		c0.183-1.155,0.275-2.371,0.275-3.646c0-0.41-0.016-0.896-0.048-1.458s-0.097-1.091-0.194-1.588
		c-0.097-0.496-0.238-0.907-0.421-1.23c-0.184-0.324-0.438-0.465-0.761-0.422c-0.303,0.044-0.594,0.243-0.875,0.6
		s-0.53,0.751-0.745,1.183c-0.238,0.497-0.475,1.06-0.712,1.685c-0.065,0.131-0.109,0.151-0.13,0.065
		c-0.022-0.087-0.022-0.298,0-0.632C12.8,268.923,12.865,268.346,12.973,267.524z"/>
	<path fill="#FFFFFF" d="M35.309,291.986c-0.789,0-1.598-0.206-2.405-0.611c-0.527-0.24-0.988-0.569-1.376-0.984
		c-0.467,0.316-0.966,0.58-1.488,0.789c-0.695,0.279-1.426,0.42-2.17,0.42c-0.166,0-0.332-0.006-0.5-0.021
		c-0.57-0.033-1.278-0.216-2.104-0.55c-0.931-0.375-1.802-1.021-2.584-1.917c-0.751-0.862-1.338-1.955-1.796-3.341
		c-0.449-1.362-0.617-2.996-0.514-4.996c0.104-2.18,0.513-3.968,1.25-5.457c0.73-1.474,1.645-2.671,2.721-3.558
		c1.057-0.872,2.21-1.499,3.428-1.868c1.073-0.322,2.099-0.52,3.051-0.588c0.285-0.02,0.579-0.03,0.882-0.03
		c0.691,0,1.442,0.054,2.233,0.158c0,0,1.318-0.276,1.812-0.376c0.533-0.106,0.993-0.188,1.381-0.247
		c0.341-0.052,0.59-0.074,0.813-0.074c1.664,0,2.657,1.312,2.657,2.579c0,0.035-0.012,0.263-0.042,0.682
		c0.284-0.285,0.585-0.467,0.847-0.582c0.369-0.164,0.755-0.246,1.151-0.246c0.559,0,1.105,0.166,1.581,0.48
		c0.429,0.287,0.984,0.82,1.267,1.777c0.146,0.498,0.193,1.027,0.144,1.582c-0.083,0.721-0.229,1.537-0.455,2.561
		c-0.22,0.992-0.503,2.067-0.842,3.195c-0.345,1.147-0.757,2.322-1.227,3.49c-0.49,1.219-1.038,2.344-1.628,3.343
		c-0.651,1.103-1.388,2.042-2.191,2.789c-1.319,1.228-2.648,1.544-3.556,1.588C35.538,291.982,35.423,291.986,35.309,291.986z"/>
	<path fill="#FFFFFF" d="M33.547,272.125c0.302-0.064,0.707-0.15,1.215-0.26c0.507-0.107,1.004-0.21,1.49-0.308
		c0.486-0.097,0.907-0.173,1.264-0.227s0.534-0.06,0.534-0.017c0,0.044-0.027,0.422-0.081,1.135
		c-0.054,0.713-0.13,1.587-0.227,2.624s-0.2,2.161-0.308,3.37c-0.108,1.21-0.2,2.338-0.275,3.385
		c-0.076,1.049-0.125,1.934-0.146,2.657c-0.022,0.725,0,1.107,0.065,1.151c0.259,0.215,0.556,0.102,0.891-0.341
		c0.334-0.442,0.686-1.069,1.053-1.879c0.367-0.811,0.729-1.723,1.085-2.739c0.356-1.014,0.686-1.986,0.988-2.915
		c0.302-0.929,0.551-1.733,0.745-2.414s0.313-1.085,0.357-1.215c0.064-0.216,0.145-0.345,0.242-0.389
		c0.098-0.043,0.195-0.032,0.292,0.032s0.173,0.189,0.227,0.372c0.054,0.185,0.07,0.396,0.049,0.632
		c-0.065,0.562-0.2,1.307-0.405,2.236c-0.206,0.929-0.47,1.934-0.793,3.013c-0.324,1.08-0.708,2.171-1.15,3.272
		c-0.443,1.102-0.929,2.102-1.458,2.997c-0.53,0.896-1.107,1.636-1.734,2.22c-0.626,0.583-1.285,0.885-1.976,0.907
		c-0.454,0.043-0.951-0.077-1.491-0.356c-0.303-0.129-0.551-0.324-0.745-0.583s-0.352-0.557-0.47-0.892
		c-0.119-0.334-0.206-0.69-0.259-1.069c-0.054-0.377-0.081-0.739-0.081-1.085c-0.238,0.497-0.524,0.967-0.858,1.409
		c-0.335,0.442-0.713,0.831-1.134,1.167c-0.421,0.335-0.875,0.599-1.36,0.793c-0.486,0.195-0.988,0.271-1.507,0.227
		c-0.346-0.021-0.799-0.145-1.361-0.373c-0.562-0.227-1.102-0.636-1.62-1.23c-0.518-0.594-0.95-1.414-1.296-2.462
		c-0.345-1.048-0.475-2.403-0.389-4.065c0.087-1.815,0.417-3.3,0.989-4.455c0.572-1.156,1.258-2.063,2.057-2.723
		c0.799-0.658,1.647-1.122,2.543-1.393c0.896-0.27,1.728-0.432,2.495-0.486c0.767-0.054,1.637-0.016,2.608,0.113
		C33.568,271.963,33.547,272.018,33.547,272.125z M30.631,284.47c0.215-0.022,0.421-0.118,0.615-0.292
		c0.194-0.173,0.378-0.378,0.551-0.615c0.173-0.238,0.329-0.502,0.47-0.795c0.14-0.291,0.264-0.555,0.373-0.793
		c0.021-0.539,0.048-1.182,0.081-1.928c0.033-0.745,0.065-1.508,0.097-2.284c0.033-0.778,0.065-1.528,0.097-2.251
		c0.033-0.725,0.059-1.355,0.081-1.896c-0.086,0.021-0.238,0.033-0.453,0.033c-0.411,0.021-0.816,0.237-1.215,0.646
		c-0.4,0.411-0.762,0.946-1.085,1.604c-0.324,0.659-0.589,1.421-0.793,2.284c-0.206,0.864-0.308,1.771-0.308,2.723
		c0,0.322,0.016,0.695,0.049,1.117c0.032,0.422,0.102,0.814,0.21,1.183c0.107,0.367,0.259,0.681,0.454,0.939
		S30.307,284.513,30.631,284.47z"/>
	<path fill="#FFFFFF" d="M46.011,291.897c-0.653,0-1.322-0.056-1.988-0.163c-1.25-0.203-2.414-0.684-3.458-1.434
		c-1.048-0.75-1.925-1.791-2.606-3.096c-0.678-1.297-1.048-2.855-1.13-4.764c-0.051-2.128,0.177-4.012,0.675-5.648
		c0.523-1.713,1.306-3.191,2.329-4.393c1.04-1.225,2.311-2.18,3.775-2.844c1.414-0.637,2.979-1.002,4.656-1.081
		c0.065-0.005,0.167-0.009,0.272-0.009c0.535,0,1.11,0.08,1.758,0.246c0.887,0.228,1.735,0.682,2.526,1.352
		c0.704,0.598,1.315,1.39,1.821,2.357c0.713-0.578,1.445-0.678,1.86-0.678c1,0,2.316,0.59,2.733,2.254
		c0.153,0.617,0.137,1.293-0.049,2.27c-0.124,0.593-0.295,1.304-0.524,2.176c-0.237,0.901-0.551,1.881-0.934,2.912
		c-0.388,1.047-0.865,2.125-1.416,3.205c-0.59,1.156-1.3,2.236-2.108,3.209c-0.852,1.023-1.832,1.901-2.915,2.609
		c-1.201,0.786-2.556,1.275-4.025,1.451C46.826,291.877,46.417,291.897,46.011,291.897z"/>
	<path fill="#FFFFFF" d="M48.386,271.023c0.345-0.021,0.772,0.032,1.28,0.162c0.507,0.129,1.009,0.404,1.506,0.826
		c0.497,0.422,0.935,1.021,1.312,1.798c0.378,0.778,0.61,1.794,0.696,3.046c-0.713,1.059-1.372,2.02-1.976,2.883
		c-0.259,0.369-0.519,0.725-0.778,1.07c-0.259,0.346-0.502,0.658-0.729,0.939c-0.228,0.281-0.433,0.518-0.616,0.713
		c-0.184,0.193-0.319,0.302-0.405,0.324c0.086-0.54,0.124-1.15,0.113-1.831s-0.048-1.366-0.113-2.058
		c-0.064-0.691-0.151-1.371-0.259-2.041s-0.222-1.264-0.34-1.782s-0.237-0.929-0.356-1.231c-0.119-0.303-0.211-0.453-0.276-0.453
		c-0.259,0.044-0.502,0.443-0.729,1.199c-0.227,0.756-0.421,1.652-0.583,2.689c-0.162,1.035-0.271,2.11-0.324,3.223
		c-0.054,1.113-0.027,2.047,0.081,2.803c0.108,0.67,0.238,1.215,0.389,1.637c0.151,0.42,0.312,0.756,0.486,1.004
		c0.173,0.249,0.351,0.41,0.535,0.486c0.184,0.076,0.373,0.113,0.567,0.113c0.843-0.043,1.62-0.34,2.333-0.891
		c0.712-0.552,1.355-1.236,1.928-2.059c0.572-0.819,1.08-1.7,1.522-2.64s0.815-1.831,1.118-2.673
		c0.302-0.843,0.54-1.561,0.713-2.154c0.172-0.595,0.28-0.945,0.324-1.054c0.065-0.194,0.167-0.372,0.308-0.534
		c0.14-0.162,0.27-0.244,0.389-0.244s0.205,0.109,0.259,0.324c0.053,0.217,0.026,0.605-0.081,1.167
		c-0.108,0.519-0.271,1.188-0.486,2.009c-0.216,0.821-0.502,1.713-0.859,2.674s-0.789,1.938-1.296,2.932
		c-0.508,0.994-1.107,1.906-1.798,2.737s-1.474,1.534-2.349,2.106c-0.875,0.572-1.853,0.924-2.932,1.053
		c-0.821,0.086-1.664,0.06-2.527-0.081c-0.864-0.14-1.658-0.47-2.381-0.987c-0.724-0.52-1.334-1.253-1.831-2.204
		c-0.497-0.95-0.777-2.181-0.842-3.692c-0.043-1.815,0.146-3.414,0.567-4.796c0.421-1.383,1.031-2.544,1.831-3.483
		s1.761-1.662,2.884-2.171C45.783,271.375,47.025,271.088,48.386,271.023z"/>
	<path fill="#FFFFFF" d="M64.554,292.279c-0.915,0-1.784-0.148-2.583-0.442c-0.529-0.195-1.034-0.439-1.509-0.731
		c-0.297,0.3-0.701,0.521-1.251,0.607c-0.357,0.094-0.751,0.168-1.195,0.227c-0.524,0.068-1.061,0.104-1.594,0.104
		c-0.567,0-1.125-0.043-1.658-0.131c-0.708-0.115-1.335-0.33-1.864-0.64c-0.819-0.478-1.305-1.371-1.262-2.318
		c0.021-0.469,0.047-1.162,0.08-2.079c0.032-0.916,0.058-1.955,0.08-3.116l0.129-7.804c0.021-1.336,0.049-2.63,0.082-3.88
		c0.032-1.239,0.059-2.333,0.081-3.282c0.021-0.963,0.044-1.742,0.066-2.334c0.035-0.959,0.053-1.439,0.341-2.006
		c0.412-0.841,1.172-1.191,1.626-1.4c0.295-0.136,0.65-0.285,1.071-0.455l1.219-0.488c0.477-0.189,0.92-0.355,1.334-0.498
		l0.934-0.32c0.369-0.129,0.74-0.245,1.193-0.245c1.409,0,2.566,1.149,2.566,2.558c0,0.057-0.002,0.115-0.006,0.172
		c-0.021,0.314-0.053,0.929-0.095,1.841c-0.043,0.943-0.22,4.532-0.22,4.532c0.164-0.101,0.33-0.195,0.497-0.286
		c1.035-0.558,2.147-0.841,3.305-0.841l0.193,0.002c1.082,0.045,2.046,0.39,2.821,1c0.67,0.527,1.202,1.205,1.578,2.016
		c0.008,0.018,0.016,0.035,0.024,0.053c0.687-0.799,1.509-0.992,1.97-1.033c0.074-0.008,0.172-0.012,0.247-0.012
		c1.065,0,2.015,0.593,2.54,1.585c0.314,0.59,0.442,1.274,0.39,2.089c-0.005,0.066-0.012,0.134-0.021,0.199
		c-0.041,0.284-0.101,0.824-0.181,1.622c-0.096,0.94-0.268,2.014-0.51,3.192c-0.242,1.182-0.57,2.43-0.971,3.714
		c-0.434,1.391-1.012,2.696-1.716,3.882c-0.752,1.264-1.674,2.35-2.743,3.227c-1.266,1.039-2.776,1.613-4.49,1.709
		C64.885,292.275,64.718,292.279,64.554,292.279z M65.051,283.812c0.226,0.087,0.455,0.128,0.705,0.128
		c0.056,0,0.113-0.002,0.17-0.006c0.211-0.012,0.41-0.141,0.644-0.389c0.512-0.544,0.988-1.277,1.411-2.174
		c0.181-0.384,0.349-0.789,0.503-1.211L65.051,283.812z"/>
	<path fill="#FFFFFF" d="M63.063,282.201c0.021-0.475,0.049-1.063,0.081-1.766c0.033-0.701,0.033-1.377,0-2.025
		c-0.032-0.647-0.103-1.203-0.21-1.668s-0.281-0.718-0.519-0.762c-0.238-0.043-0.502,0.103-0.793,0.438s-0.589,0.75-0.891,1.247
		c-0.303,1.296-0.362,2.495-0.178,3.597c0.183,1.102,0.535,2.047,1.053,2.836c0.519,0.787,1.172,1.398,1.96,1.829
		c0.788,0.433,1.636,0.616,2.543,0.552c0.843-0.043,1.614-0.438,2.316-1.183c0.701-0.745,1.322-1.69,1.863-2.835
		c0.539-1.145,0.972-2.414,1.294-3.808c0.324-1.394,0.529-2.759,0.617-4.099c0.021-0.303,0.086-0.534,0.193-0.695
		c0.108-0.163,0.221-0.25,0.339-0.26c0.119-0.011,0.223,0.064,0.309,0.227s0.118,0.405,0.098,0.729
		c-0.045,0.303-0.109,0.881-0.195,1.733c-0.086,0.854-0.242,1.831-0.469,2.933c-0.227,1.102-0.528,2.258-0.907,3.467
		c-0.377,1.21-0.869,2.322-1.474,3.337c-0.604,1.017-1.328,1.868-2.169,2.56c-0.843,0.691-1.848,1.069-3.014,1.135
		c-0.756,0.043-1.442-0.049-2.057-0.276c-0.616-0.227-1.178-0.545-1.685-0.955c-0.508-0.411-0.951-0.886-1.329-1.426
		c-0.378-0.54-0.696-1.091-0.956-1.652c-0.043,1.08-0.081,1.987-0.113,2.722c-0.033,0.734-0.049,1.09-0.049,1.069
		c-0.281,0.086-0.627,0.156-1.037,0.21c-0.411,0.054-0.832,0.082-1.264,0.082c-0.433,0-0.848-0.033-1.248-0.098
		c-0.4-0.065-0.729-0.174-0.988-0.324c0.021-0.475,0.048-1.178,0.081-2.106c0.033-0.928,0.06-1.981,0.081-3.159
		c0.021-1.176,0.043-2.439,0.065-3.79c0.021-1.351,0.043-2.689,0.064-4.018c0.021-1.329,0.049-2.614,0.081-3.856
		c0.033-1.241,0.06-2.338,0.082-3.288c0.021-0.95,0.043-1.718,0.064-2.3c0.021-0.584,0.043-0.896,0.065-0.939
		c0.021-0.043,0.162-0.125,0.421-0.244s0.578-0.253,0.956-0.404c0.377-0.15,0.783-0.313,1.215-0.486s0.837-0.324,1.215-0.454
		c0.377-0.129,0.691-0.237,0.939-0.323c0.248-0.086,0.373-0.119,0.373-0.098c-0.022,0.324-0.054,0.957-0.098,1.896
		s-0.097,2.057-0.162,3.353c-0.065,1.296-0.135,2.712-0.21,4.244c-0.076,1.534-0.146,3.078-0.211,4.634
		c0.259-0.691,0.616-1.404,1.069-2.139s0.982-1.403,1.587-2.01c0.605-0.604,1.258-1.096,1.96-1.473
		c0.702-0.379,1.442-0.557,2.219-0.535c0.519,0.021,0.957,0.174,1.312,0.453c0.357,0.281,0.637,0.643,0.843,1.086
		c0.205,0.443,0.345,0.939,0.42,1.49c0.076,0.551,0.092,1.097,0.048,1.637L63.063,282.201z"/>
	<path fill="#FFFFFF" d="M87.165,294.766c-1.211,0-2.523-0.346-3.9-1.027c-1.405-0.697-2.711-1.8-3.882-3.279
		c-1.12-1.414-2.056-3.232-2.784-5.404c-0.722-2.154-1.088-4.781-1.088-7.811c0-1.308,0.102-2.664,0.302-4.031
		c0.201-1.371,0.501-2.725,0.892-4.025c0.393-1.312,0.891-2.588,1.48-3.79c0.619-1.268,1.354-2.4,2.181-3.368
		c0.878-1.029,1.876-1.87,2.968-2.5c1.197-0.688,2.514-1.068,3.915-1.131c0.103-0.005,0.201-0.007,0.301-0.007
		c1.49,0,2.87,0.478,4.102,1.421c1.093,0.839,2.034,1.93,2.794,3.242c0.721,1.242,1.261,2.635,1.607,4.141
		c0.264,1.143,0.397,2.285,0.402,3.408c0.11-0.013,0.221-0.019,0.332-0.019c0.369,0,0.732,0.069,1.076,0.206
		c0.646,0.264,1.16,0.719,1.548,1.361c0.343,0.568,0.514,1.223,0.514,1.949c0,0.243-0.026,0.545-0.157,1.441
		c-0.096,0.648-0.244,1.422-0.455,2.367c-0.203,0.916-0.459,1.938-0.758,3.035c-0.311,1.139-0.682,2.297-1.104,3.446
		c-0.432,1.179-0.934,2.343-1.49,3.455c-0.593,1.187-1.279,2.272-2.039,3.222c-0.818,1.025-1.746,1.871-2.758,2.518
		c-1.172,0.748-2.463,1.145-3.838,1.178L87.165,294.766z M86.798,279.212c-0.014,0.649-0.004,1.298,0.031,1.942
		c0.021,0.633,0.09,1.276,0.211,1.977c0.109,0.636,0.271,1.221,0.481,1.74c0.104,0.257,0.222,0.47,0.353,0.636
		c0.524-0.081,0.963-0.323,1.393-0.753c0.688-0.687,1.307-1.596,1.838-2.701c0.593-1.236,1.111-2.641,1.543-4.172
		c0.043-0.153,0.087-0.307,0.129-0.459c-0.177,0.229-0.348,0.446-0.512,0.654c-0.391,0.498-0.727,0.904-1,1.213
		c-0.34,0.385-1.047,1.184-2.262,1.186c-0.002,0-0.002,0-0.002,0c-0.676,0-1.336-0.284-1.813-0.764
		C87.037,279.562,86.906,279.393,86.798,279.212z"/>
	<path fill="#FFFFFF" d="M87.36,260.947c0.993-0.043,1.906,0.254,2.738,0.891c0.831,0.637,1.544,1.47,2.139,2.495
		c0.594,1.026,1.037,2.17,1.328,3.435c0.291,1.264,0.395,2.5,0.308,3.709c0,0.065-0.124,0.275-0.372,0.633
		c-0.249,0.355-0.551,0.787-0.907,1.296c-0.356,0.507-0.745,1.036-1.167,1.587s-0.811,1.053-1.166,1.507
		c-0.356,0.454-0.66,0.821-0.908,1.101c-0.248,0.281-0.372,0.379-0.372,0.293c0-0.195-0.017-0.605-0.048-1.232
		c-0.033-0.625-0.077-1.344-0.131-2.154c-0.053-0.81-0.129-1.662-0.227-2.559c-0.097-0.896-0.217-1.723-0.355-2.479
		c-0.141-0.756-0.309-1.377-0.504-1.863c-0.193-0.486-0.42-0.729-0.68-0.729c-0.107,0-0.26,0.189-0.453,0.567
		c-0.194,0.378-0.405,0.902-0.633,1.57c-0.227,0.671-0.453,1.465-0.68,2.383s-0.421,1.906-0.582,2.964
		c-0.163,1.059-0.287,2.183-0.373,3.37c-0.088,1.188-0.098,2.377-0.033,3.564c0.021,0.691,0.103,1.447,0.243,2.268
		c0.141,0.821,0.352,1.577,0.632,2.268c0.28,0.691,0.647,1.252,1.102,1.686c0.454,0.432,1.026,0.615,1.717,0.55
		c1.166-0.107,2.198-0.61,3.095-1.507c0.896-0.896,1.673-2.029,2.333-3.4c0.658-1.373,1.226-2.9,1.7-4.586
		c0.476-1.686,0.896-3.369,1.265-5.054c0.021-0.151,0.091-0.259,0.211-0.324c0.118-0.065,0.231-0.075,0.34-0.032
		c0.107,0.043,0.21,0.146,0.307,0.307c0.098,0.163,0.146,0.373,0.146,0.633c0,0.13-0.044,0.486-0.13,1.069
		c-0.087,0.583-0.228,1.312-0.421,2.187c-0.194,0.875-0.438,1.847-0.729,2.916c-0.292,1.069-0.638,2.149-1.037,3.24
		c-0.4,1.09-0.859,2.154-1.377,3.191s-1.102,1.959-1.75,2.77c-0.647,0.811-1.36,1.464-2.139,1.961
		c-0.777,0.496-1.619,0.756-2.527,0.777c-0.842,0.021-1.798-0.232-2.867-0.762s-2.072-1.389-3.012-2.576
		c-0.94-1.187-1.729-2.732-2.367-4.632c-0.637-1.901-0.955-4.233-0.955-6.999c0-1.188,0.092-2.408,0.275-3.662
		c0.184-1.252,0.453-2.472,0.811-3.66c0.355-1.188,0.799-2.322,1.328-3.402s1.139-2.025,1.83-2.835s1.459-1.458,2.301-1.944
		C85.448,261.256,86.366,260.99,87.36,260.947z"/>
	<path fill="#FFFFFF" d="M105.743,291.986c-0.789,0-1.598-0.206-2.406-0.613c-0.525-0.238-0.987-0.568-1.375-0.982
		c-0.469,0.316-0.968,0.58-1.488,0.789c-0.695,0.279-1.426,0.42-2.17,0.42c-0.165,0-0.331-0.006-0.499-0.021
		c-0.569-0.033-1.277-0.216-2.104-0.55c-0.933-0.377-1.804-1.022-2.585-1.919c-0.751-0.86-1.34-1.953-1.797-3.34
		c-0.448-1.362-0.616-2.996-0.513-4.997c0.104-2.178,0.513-3.966,1.25-5.455c0.73-1.475,1.646-2.672,2.722-3.559
		c1.056-0.871,2.21-1.498,3.428-1.867c1.072-0.322,2.098-0.52,3.051-0.588c0.285-0.02,0.578-0.03,0.883-0.03
		c0.69,0,1.441,0.054,2.232,0.158c0,0,1.318-0.276,1.812-0.376c0.533-0.106,0.992-0.188,1.381-0.247
		c0.34-0.052,0.59-0.074,0.813-0.074c1.663,0,2.657,1.312,2.657,2.579c0,0.035-0.012,0.263-0.041,0.682
		c0.282-0.283,0.582-0.466,0.842-0.582c0.374-0.164,0.76-0.246,1.155-0.246c0.558,0,1.103,0.166,1.577,0.478
		c0.428,0.286,0.984,0.817,1.27,1.775c0.147,0.509,0.195,1.04,0.143,1.597c-0.078,0.701-0.225,1.518-0.452,2.549
		c-0.22,0.994-0.503,2.068-0.843,3.197c-0.341,1.139-0.753,2.312-1.225,3.488c-0.49,1.219-1.039,2.344-1.63,3.345
		c-0.652,1.104-1.389,2.042-2.189,2.789c-1.32,1.228-2.649,1.544-3.558,1.588C105.972,291.982,105.858,291.986,105.743,291.986z"/>
	<path fill="#FFFFFF" d="M103.981,272.125c0.303-0.064,0.707-0.15,1.215-0.26c0.508-0.107,1.004-0.21,1.49-0.308
		c0.486-0.097,0.907-0.173,1.264-0.227s0.535-0.06,0.535-0.017c0,0.044-0.027,0.422-0.081,1.135
		c-0.055,0.713-0.13,1.587-0.228,2.624c-0.097,1.037-0.199,2.161-0.307,3.37c-0.109,1.21-0.201,2.338-0.276,3.385
		c-0.075,1.049-0.124,1.934-0.146,2.657c-0.021,0.725,0,1.107,0.064,1.151c0.26,0.215,0.557,0.102,0.892-0.341
		s0.686-1.069,1.053-1.879c0.368-0.811,0.729-1.723,1.085-2.739c0.357-1.014,0.686-1.986,0.988-2.915s0.551-1.733,0.746-2.414
		c0.193-0.681,0.312-1.085,0.356-1.215c0.063-0.216,0.146-0.345,0.242-0.389c0.098-0.043,0.194-0.032,0.292,0.032
		s0.172,0.189,0.227,0.372c0.054,0.185,0.07,0.396,0.049,0.632c-0.064,0.562-0.199,1.307-0.404,2.236
		c-0.206,0.929-0.471,1.934-0.795,3.013c-0.323,1.08-0.707,2.171-1.149,3.272s-0.929,2.102-1.458,2.997
		c-0.53,0.896-1.107,1.636-1.733,2.22c-0.626,0.583-1.286,0.885-1.977,0.907c-0.454,0.043-0.951-0.077-1.491-0.356
		c-0.302-0.129-0.551-0.324-0.744-0.583c-0.195-0.259-0.352-0.557-0.471-0.892c-0.119-0.334-0.205-0.69-0.259-1.069
		c-0.054-0.377-0.081-0.739-0.081-1.085c-0.238,0.497-0.523,0.967-0.858,1.409s-0.713,0.831-1.134,1.167
		c-0.422,0.335-0.875,0.599-1.361,0.793c-0.486,0.195-0.988,0.271-1.506,0.227c-0.346-0.021-0.799-0.145-1.361-0.373
		c-0.562-0.227-1.102-0.636-1.619-1.23c-0.52-0.594-0.951-1.414-1.297-2.462s-0.475-2.403-0.389-4.065
		c0.086-1.815,0.416-3.3,0.988-4.455c0.572-1.156,1.258-2.063,2.057-2.723c0.8-0.658,1.648-1.122,2.545-1.393
		c0.895-0.27,1.727-0.432,2.494-0.486c0.766-0.054,1.637-0.016,2.607,0.113C104.003,271.963,103.981,272.018,103.981,272.125z
		 M101.065,284.47c0.217-0.022,0.422-0.118,0.616-0.292c0.194-0.173,0.377-0.378,0.55-0.615c0.174-0.238,0.33-0.502,0.471-0.795
		c0.14-0.291,0.264-0.555,0.373-0.793c0.021-0.539,0.048-1.182,0.08-1.928c0.033-0.745,0.064-1.508,0.098-2.284
		c0.031-0.778,0.064-1.528,0.097-2.251c0.032-0.725,0.06-1.355,0.081-1.896c-0.086,0.021-0.237,0.033-0.453,0.033
		c-0.411,0.021-0.816,0.237-1.215,0.646c-0.4,0.411-0.762,0.946-1.086,1.604c-0.324,0.659-0.589,1.421-0.793,2.284
		c-0.206,0.864-0.309,1.771-0.309,2.723c0,0.322,0.016,0.695,0.049,1.117c0.032,0.422,0.102,0.814,0.21,1.183
		c0.108,0.367,0.259,0.681,0.454,0.939C100.482,284.404,100.741,284.513,101.065,284.47z"/>
	<path fill="#FFFFFF" d="M113.378,291.986c-1.003,0-1.94-0.285-2.713-0.827c-0.786-0.552-1.396-1.313-1.812-2.267
		c-0.332-0.759-0.549-1.617-0.666-2.623c-0.102-0.873-0.129-1.848-0.078-2.893c0.086-1.682,0.184-3.407,0.293-5.188
		c0.086-1.482,0.182-3.139,0.292-4.954c0.056-0.962,0.113-1.905,0.171-2.831c-0.302-0.146-0.574-0.352-0.801-0.609
		c-0.473-0.533-0.699-1.242-0.625-1.951l0.26-2.494c0.1-0.962,0.729-1.766,1.596-2.109c0.032-0.586,0.07-1.098,0.112-1.533
		c0.019-0.455,0.038-0.87,0.058-1.242c0.008-0.643,0.26-1.268,0.713-1.738c0.43-0.448,0.995-0.713,1.586-0.771
		c0,0,1.875-0.452,2.35-0.562c0.503-0.117,0.977-0.215,1.424-0.299c0.441-0.08,0.801-0.144,1.086-0.189
		c0.312-0.049,0.547-0.062,0.705-0.062c1.486,0,2.652,1.135,2.652,2.582c0,0.031-0.01,0.24-0.039,0.625
		c-0.025,0.309-0.065,0.708-0.123,1.217c-0.034,0.293-0.069,0.615-0.105,0.968c0.204,0.103,0.395,0.233,0.568,0.392
		c0.559,0.51,0.863,1.24,0.83,1.996l-0.162,3.727c-0.051,1.196-0.92,2.168-2.05,2.392c-0.05,0.52-0.198,2.18-0.226,2.478
		c0.15-0.172,0.318-0.324,0.502-0.461c0.542-0.393,1.154-0.596,1.783-0.596c0.17,0,0.404,0.023,0.57,0.057
		c0.818,0.161,1.521,0.671,1.971,1.435c0.277,0.475,0.561,1.257,0.35,2.311c-0.111,0.61-0.295,1.401-0.551,2.382
		c-0.248,0.948-0.552,1.973-0.902,3.045c-0.358,1.1-0.785,2.219-1.27,3.325c-0.504,1.151-1.059,2.212-1.65,3.153
		c-0.666,1.058-1.416,1.949-2.23,2.65c-1.061,0.914-2.239,1.404-3.505,1.457C113.617,291.982,113.495,291.986,113.378,291.986z"/>
	<path fill="#FFFFFF" d="M110.235,265.613l1.49-0.195c0.043-0.713,0.081-1.371,0.113-1.977c0.031-0.604,0.069-1.123,0.113-1.555
		c0.021-0.518,0.043-0.982,0.064-1.394c-0.021,0.022,0.103,0,0.373-0.065c0.27-0.064,0.604-0.145,1.004-0.242
		s0.832-0.199,1.297-0.308c0.464-0.108,0.9-0.2,1.312-0.276c0.409-0.074,0.749-0.135,1.02-0.178c0.27-0.043,0.405-0.043,0.405,0
		c0,0.021-0.011,0.168-0.032,0.438c-0.021,0.271-0.061,0.643-0.113,1.117c-0.055,0.477-0.113,1.033-0.179,1.67
		s-0.129,1.333-0.194,2.089l1.652-0.227l-0.162,3.727l-1.814-0.032c-0.129,1.252-0.254,2.549-0.373,3.888
		c-0.118,1.34-0.236,2.651-0.355,3.937s-0.227,2.5-0.324,3.645c-0.098,1.146-0.174,2.154-0.227,3.029
		c-0.055,0.875-0.093,1.578-0.113,2.107c-0.022,0.528-0.012,0.804,0.032,0.826c0.237,0.215,0.528,0.129,0.874-0.26
		c0.346-0.39,0.708-0.945,1.086-1.67c0.378-0.723,0.75-1.543,1.117-2.461c0.368-0.918,0.702-1.793,1.006-2.625
		c0.302-0.831,0.55-1.561,0.744-2.188c0.195-0.625,0.313-1.015,0.356-1.166c0.065-0.215,0.157-0.367,0.275-0.453
		s0.231-0.119,0.341-0.098c0.107,0.021,0.199,0.098,0.275,0.228c0.075,0.129,0.092,0.302,0.048,0.518
		c-0.108,0.583-0.281,1.329-0.519,2.235c-0.237,0.908-0.523,1.875-0.858,2.9c-0.335,1.026-0.729,2.057-1.183,3.094
		c-0.453,1.037-0.944,1.977-1.474,2.819c-0.53,0.842-1.107,1.534-1.733,2.073c-0.627,0.541-1.285,0.82-1.977,0.843
		c-0.584,0.043-1.074-0.077-1.475-0.356c-0.4-0.281-0.713-0.681-0.939-1.199s-0.383-1.149-0.469-1.895
		c-0.088-0.746-0.109-1.572-0.066-2.479c0.087-1.663,0.185-3.381,0.293-5.152c0.086-1.49,0.182-3.143,0.291-4.957
		c0.107-1.814,0.216-3.564,0.324-5.249l-1.588-0.032L110.235,265.613z"/>
	<path fill="#FFFFFF" d="M122.286,294.02c-0.813,0-1.607-0.183-2.359-0.541c-0.76-0.357-1.438-0.907-2.008-1.628
		c-0.549-0.698-0.953-1.556-1.201-2.552c-0.234-0.934-0.293-1.979-0.178-3.191c0.152-1.664,0.694-3.086,1.609-4.215
		c0.228-0.281,0.473-0.554,0.73-0.814c-0.272-0.396-0.538-0.82-0.79-1.267c-0.425-0.751-0.778-1.626-1.048-2.6
		c-0.275-0.991-0.423-2.153-0.449-3.548c0-1.385,0.199-2.644,0.592-3.791c0.389-1.143,0.93-2.168,1.607-3.047
		c0.684-0.889,1.475-1.624,2.35-2.182c0.965-0.615,1.971-0.979,2.99-1.084c0.27-0.023,0.513-0.034,0.767-0.034
		c0.116,0,0.235,0.001,0.355,0.007c0.323,0.014,0.618,0.031,0.896,0.059c0.29,0.021,0.639,0.059,0.999,0.11
		c1.143,0.163,2.033,1.071,2.173,2.216c0.216,1.768,0.409,3.329,0.581,4.686l0.193,1.699c0.454-0.25,0.954-0.381,1.456-0.381
		c0.39,0,0.771,0.076,1.135,0.226c0.833,0.352,1.444,1.034,1.741,1.932c0.199,0.593,0.23,1.265,0.098,2.106
		c-0.193,1.041-0.523,1.945-0.99,2.756c-0.441,0.767-0.991,1.467-1.633,2.078c-0.576,0.548-1.215,1.053-1.902,1.502
		c-0.09,0.061-0.182,0.118-0.273,0.176c0.014,0.096,0.024,0.191,0.035,0.287c0.094,0.834,0.102,1.724,0.022,2.644
		c-0.108,1.372-0.419,2.606-0.921,3.653c-0.491,1.026-1.089,1.894-1.776,2.582c-0.718,0.717-1.511,1.262-2.355,1.616
		C123.881,293.837,123.058,294.02,122.286,294.02z"/>
	<path fill="#FFFFFF" d="M124.393,266.099c0.237-0.021,0.491-0.026,0.762-0.017c0.271,0.012,0.522,0.027,0.761,0.049
		c0.281,0.021,0.572,0.055,0.875,0.098c0.217,1.771,0.41,3.337,0.584,4.697c0.064,0.584,0.129,1.156,0.193,1.717
		c0.065,0.562,0.125,1.06,0.179,1.491c0.054,0.433,0.092,0.778,0.114,1.037c0.021,0.259,0.031,0.378,0.031,0.356
		c-0.129-0.238-0.346-0.486-0.648-0.746c-0.302-0.259-0.627-0.441-0.971-0.55c-0.346-0.108-0.654-0.098-0.924,0.032
		c-0.271,0.129-0.438,0.465-0.502,1.004c-0.064,0.519,0.069,1.129,0.404,1.83c0.335,0.703,0.686,1.529,1.053,2.479
		c0.54-0.259,1.064-0.539,1.572-0.842c0.507-0.302,0.972-0.637,1.393-1.004c0.422-0.367,0.789-0.783,1.102-1.248
		c0.313-0.465,0.557-0.998,0.729-1.604c0.021-0.15,0.098-0.264,0.228-0.34s0.259-0.086,0.39-0.033
		c0.129,0.055,0.227,0.18,0.291,0.373c0.064,0.194,0.064,0.496,0,0.907c-0.13,0.692-0.356,1.317-0.681,1.879
		c-0.323,0.562-0.718,1.064-1.183,1.507c-0.465,0.443-0.977,0.848-1.539,1.215s-1.133,0.703-1.717,1.005
		c0.15,0.583,0.265,1.21,0.34,1.88c0.076,0.669,0.081,1.382,0.016,2.138c-0.086,1.08-0.312,2.003-0.68,2.771
		c-0.367,0.766-0.794,1.393-1.279,1.879c-0.486,0.486-1,0.842-1.539,1.068c-0.54,0.227-1.026,0.341-1.459,0.341
		c-0.432,0-0.854-0.097-1.263-0.292c-0.411-0.194-0.778-0.496-1.103-0.907c-0.322-0.41-0.566-0.939-0.729-1.587
		c-0.162-0.648-0.199-1.426-0.113-2.333c0.107-1.166,0.459-2.117,1.053-2.851c0.594-0.735,1.323-1.373,2.188-1.912
		c-0.303-0.519-0.633-1.01-0.988-1.475c-0.357-0.465-0.697-0.982-1.021-1.555c-0.324-0.572-0.595-1.248-0.81-2.025
		c-0.217-0.777-0.336-1.75-0.357-2.916c0-1.059,0.151-2.03,0.455-2.916c0.301-0.885,0.706-1.656,1.214-2.316
		c0.507-0.658,1.074-1.188,1.7-1.588C123.14,266.396,123.766,266.163,124.393,266.099z M123.226,284.6
		c-0.021-0.238-0.053-0.465-0.096-0.682c-0.045-0.215-0.088-0.431-0.131-0.646c-0.627,0.367-1.133,0.739-1.521,1.117
		c-0.39,0.378-0.596,0.814-0.617,1.312c-0.021,0.433,0.006,0.778,0.082,1.037c0.075,0.259,0.166,0.465,0.275,0.615
		c0.107,0.151,0.237,0.255,0.389,0.309c0.15,0.054,0.291,0.093,0.421,0.113c0.367,0.063,0.681-0.211,0.939-0.826
		C123.226,286.332,123.312,285.55,123.226,284.6z"/>
</g>
<g>
	<path d="M8.129,261.205c0.183,0,0.41,0,0.68,0s0.583-0.005,0.94-0.016c0.356-0.01,0.718-0.016,1.085-0.016
		c0.863-0.021,1.835-0.055,2.916-0.098l-0.195,4.051c0.238-0.648,0.519-1.27,0.843-1.863c0.324-0.595,0.686-1.119,1.085-1.572
		c0.399-0.453,0.826-0.809,1.279-1.068c0.454-0.26,0.918-0.367,1.394-0.324c0.345,0.021,0.799,0.173,1.361,0.453
		c0.562,0.281,1.102,0.816,1.62,1.604c0.518,0.789,0.956,1.907,1.312,3.354c0.356,1.447,0.502,3.359,0.438,5.734
		c-0.065,1.75-0.249,3.273-0.551,4.569c-0.303,1.296-0.681,2.403-1.134,3.321s-0.972,1.668-1.555,2.252
		c-0.583,0.582-1.177,1.036-1.782,1.36c0.194,0.454,0.399,0.907,0.616,1.36c0.215,0.453,0.442,0.859,0.68,1.216
		c0.237,0.356,0.48,0.638,0.729,0.842c0.248,0.206,0.491,0.286,0.729,0.243c0.345-0.043,0.691-0.361,1.037-0.956
		c0.345-0.594,0.681-1.317,1.004-2.171c0.324-0.853,0.626-1.771,0.907-2.754c0.28-0.982,0.529-1.9,0.745-2.754
		c0.216-0.853,0.394-1.576,0.535-2.171c0.141-0.593,0.232-0.923,0.275-0.987c0.065-0.087,0.157-0.125,0.275-0.114
		c0.119,0.012,0.227,0.055,0.324,0.13c0.097,0.076,0.172,0.184,0.227,0.324c0.054,0.141,0.06,0.286,0.016,0.438
		c-0.021,0.107-0.103,0.562-0.243,1.36c-0.141,0.8-0.346,1.761-0.616,2.884c-0.271,1.123-0.61,2.322-1.021,3.596
		c-0.411,1.275-0.902,2.453-1.474,3.532c-0.573,1.08-1.231,1.972-1.977,2.673c-0.745,0.702-1.583,1.031-2.511,0.988
		c-0.497-0.021-1.016-0.303-1.555-0.843c-0.541-0.54-1.059-1.166-1.556-1.879s-0.945-1.431-1.345-2.154s-0.696-1.302-0.891-1.733
		l-0.292,6.643l-5.346,0.129l0.324-14.84c0.043-1.857,0.086-3.671,0.13-5.443c0.043-1.771,0.081-3.348,0.113-4.729
		c0.033-1.382,0.082-2.917,0.146-4.601C7.854,261.195,7.945,261.205,8.129,261.205z M12.973,267.523
		c0.108-0.799,0.302-1.598,0.583-2.396l-0.129,3.4l-0.518,12.281c0.129-0.044,0.291-0.066,0.486-0.066
		c0.389-0.021,0.783-0.302,1.183-0.842c0.399-0.539,0.756-1.252,1.069-2.138c0.312-0.886,0.561-1.907,0.745-3.062
		c0.183-1.155,0.275-2.37,0.275-3.645c0-0.411-0.016-0.896-0.048-1.458c-0.032-0.562-0.097-1.091-0.194-1.588
		c-0.097-0.496-0.238-0.908-0.421-1.23c-0.184-0.324-0.438-0.465-0.762-0.422c-0.303,0.043-0.594,0.243-0.875,0.6
		c-0.281,0.355-0.53,0.751-0.745,1.182c-0.238,0.498-0.475,1.06-0.712,1.686c-0.065,0.13-0.109,0.151-0.13,0.064
		c-0.022-0.086-0.022-0.297,0-0.631C12.799,268.922,12.865,268.346,12.973,267.523z"/>
	<path d="M33.546,272.125c0.302-0.064,0.707-0.15,1.215-0.26c0.507-0.107,1.004-0.211,1.49-0.308
		c0.486-0.097,0.907-0.173,1.264-0.228c0.356-0.053,0.534-0.059,0.534-0.016s-0.027,0.422-0.081,1.135
		c-0.054,0.713-0.13,1.587-0.227,2.624c-0.097,1.037-0.2,2.16-0.308,3.37c-0.108,1.209-0.2,2.338-0.275,3.385
		c-0.076,1.048-0.125,1.934-0.146,2.657c-0.022,0.724,0,1.107,0.065,1.15c0.259,0.216,0.556,0.103,0.891-0.341
		c0.334-0.442,0.686-1.068,1.053-1.879s0.729-1.723,1.085-2.738c0.356-1.014,0.686-1.986,0.988-2.915
		c0.302-0.929,0.551-1.733,0.745-2.415c0.195-0.68,0.313-1.085,0.357-1.215c0.064-0.215,0.146-0.345,0.242-0.388
		c0.098-0.043,0.195-0.032,0.292,0.032s0.173,0.189,0.227,0.372c0.054,0.184,0.07,0.395,0.049,0.632
		c-0.065,0.562-0.2,1.307-0.405,2.236c-0.206,0.929-0.47,1.934-0.794,3.013c-0.324,1.08-0.708,2.171-1.15,3.272
		c-0.443,1.102-0.929,2.102-1.458,2.996c-0.53,0.896-1.107,1.637-1.734,2.221c-0.626,0.582-1.285,0.885-1.976,0.906
		c-0.454,0.044-0.951-0.076-1.491-0.355c-0.303-0.13-0.551-0.324-0.745-0.584c-0.195-0.259-0.352-0.556-0.47-0.891
		s-0.206-0.691-0.259-1.07c-0.054-0.377-0.081-0.738-0.081-1.084c-0.238,0.496-0.524,0.967-0.858,1.409
		c-0.335,0.442-0.713,0.831-1.134,1.166c-0.421,0.336-0.875,0.6-1.36,0.794c-0.486,0.195-0.988,0.271-1.507,0.227
		c-0.346-0.021-0.799-0.145-1.361-0.373c-0.562-0.227-1.102-0.636-1.62-1.23c-0.518-0.594-0.95-1.414-1.296-2.463
		c-0.345-1.047-0.475-2.402-0.389-4.065c0.086-1.815,0.416-3.3,0.988-4.455c0.572-1.155,1.258-2.062,2.057-2.722
		c0.799-0.658,1.647-1.123,2.543-1.393c0.896-0.271,1.728-0.432,2.495-0.486c0.767-0.055,1.637-0.016,2.608,0.113
		C33.568,271.963,33.546,272.018,33.546,272.125z M30.631,284.469c0.215-0.021,0.421-0.118,0.615-0.291
		c0.194-0.174,0.378-0.378,0.551-0.616c0.173-0.237,0.329-0.502,0.47-0.794c0.141-0.291,0.264-0.555,0.373-0.793
		c0.021-0.54,0.048-1.183,0.081-1.928c0.033-0.746,0.065-1.508,0.097-2.284c0.033-0.778,0.065-1.528,0.097-2.252
		c0.033-0.724,0.06-1.355,0.082-1.896c-0.087,0.021-0.238,0.032-0.454,0.032c-0.411,0.022-0.816,0.238-1.215,0.647
		c-0.4,0.41-0.761,0.945-1.085,1.604c-0.324,0.659-0.589,1.42-0.793,2.284c-0.206,0.863-0.308,1.771-0.308,2.722
		c0,0.323,0.016,0.696,0.049,1.117c0.032,0.422,0.102,0.815,0.21,1.183c0.107,0.367,0.259,0.681,0.454,0.939
		C30.047,284.404,30.307,284.513,30.631,284.469z"/>
	<path d="M48.386,271.023c0.345-0.021,0.772,0.032,1.28,0.161c0.507,0.13,1.01,0.405,1.506,0.826
		c0.497,0.422,0.935,1.021,1.312,1.798c0.378,0.778,0.61,1.795,0.696,3.047c-0.712,1.059-1.372,2.02-1.976,2.883
		c-0.259,0.368-0.519,0.725-0.778,1.07c-0.259,0.345-0.502,0.658-0.729,0.939c-0.227,0.281-0.433,0.518-0.616,0.713
		c-0.184,0.193-0.319,0.302-0.405,0.324c0.086-0.54,0.124-1.15,0.113-1.832c-0.011-0.68-0.048-1.365-0.113-2.057
		c-0.064-0.691-0.151-1.371-0.259-2.041c-0.108-0.67-0.221-1.264-0.34-1.782c-0.119-0.519-0.238-0.929-0.356-1.231
		c-0.119-0.303-0.21-0.453-0.276-0.453c-0.259,0.043-0.501,0.442-0.729,1.198c-0.227,0.757-0.421,1.652-0.583,2.689
		c-0.162,1.036-0.271,2.111-0.324,3.224c-0.054,1.113-0.027,2.047,0.081,2.803c0.108,0.67,0.238,1.215,0.389,1.637
		c0.151,0.42,0.313,0.756,0.486,1.004s0.351,0.41,0.535,0.486c0.184,0.075,0.373,0.113,0.567,0.113
		c0.843-0.043,1.62-0.34,2.333-0.892c0.712-0.551,1.355-1.235,1.928-2.058c0.572-0.82,1.08-1.7,1.522-2.641
		c0.443-0.939,0.815-1.83,1.118-2.672c0.302-0.844,0.54-1.561,0.713-2.155c0.173-0.595,0.28-0.944,0.324-1.053
		c0.065-0.194,0.167-0.373,0.308-0.534c0.14-0.163,0.27-0.244,0.389-0.244s0.205,0.109,0.259,0.324
		c0.053,0.217,0.027,0.605-0.081,1.166c-0.108,0.52-0.27,1.189-0.486,2.01c-0.216,0.82-0.502,1.713-0.859,2.673
		c-0.356,0.962-0.789,1.938-1.296,2.933c-0.508,0.994-1.107,1.906-1.798,2.737s-1.474,1.534-2.349,2.106s-1.853,0.923-2.932,1.053
		c-0.821,0.086-1.664,0.059-2.527-0.082c-0.864-0.139-1.658-0.469-2.381-0.987c-0.724-0.519-1.334-1.253-1.831-2.203
		s-0.777-2.182-0.842-3.693c-0.043-1.815,0.146-3.413,0.567-4.796c0.421-1.382,1.031-2.543,1.831-3.482
		c0.799-0.939,1.76-1.663,2.883-2.171C45.783,271.375,47.025,271.088,48.386,271.023z"/>
	<path d="M63.062,282.201c0.021-0.475,0.049-1.063,0.081-1.766c0.033-0.701,0.033-1.377,0-2.025
		c-0.032-0.647-0.103-1.204-0.21-1.668c-0.108-0.465-0.281-0.719-0.519-0.762s-0.502,0.103-0.793,0.438
		c-0.292,0.334-0.589,0.75-0.891,1.247c-0.303,1.296-0.362,2.495-0.179,3.597c0.183,1.102,0.535,2.047,1.053,2.835
		s1.171,1.398,1.96,1.83c0.788,0.433,1.636,0.616,2.543,0.551c0.843-0.043,1.614-0.438,2.317-1.183
		c0.701-0.744,1.322-1.689,1.862-2.834c0.539-1.145,0.972-2.414,1.294-3.809c0.324-1.393,0.529-2.758,0.616-4.098
		c0.021-0.303,0.086-0.535,0.194-0.696c0.108-0.163,0.221-0.249,0.339-0.259c0.118-0.012,0.222,0.063,0.308,0.227
		c0.086,0.162,0.119,0.404,0.098,0.729c-0.044,0.303-0.109,0.881-0.194,1.732c-0.087,0.855-0.243,1.832-0.469,2.934
		c-0.227,1.102-0.529,2.257-0.907,3.467c-0.377,1.21-0.87,2.322-1.474,3.337c-0.604,1.016-1.328,1.868-2.169,2.56
		c-0.843,0.691-1.848,1.069-3.014,1.135c-0.756,0.043-1.441-0.05-2.057-0.276c-0.616-0.228-1.178-0.545-1.685-0.956
		c-0.508-0.41-0.951-0.885-1.329-1.425c-0.378-0.54-0.696-1.091-0.956-1.652c-0.043,1.08-0.081,1.987-0.113,2.721
		c-0.033,0.735-0.049,1.091-0.049,1.069c-0.281,0.086-0.627,0.156-1.037,0.211c-0.411,0.053-0.832,0.082-1.264,0.082
		c-0.432,0-0.848-0.033-1.248-0.098c-0.4-0.065-0.729-0.174-0.988-0.324c0.021-0.475,0.048-1.178,0.081-2.106
		c0.033-0.929,0.06-1.981,0.081-3.159c0.021-1.177,0.043-2.44,0.065-3.791c0.021-1.35,0.043-2.689,0.065-4.018
		c0.021-1.328,0.048-2.613,0.081-3.855c0.033-1.242,0.06-2.338,0.082-3.289c0.021-0.949,0.043-1.717,0.064-2.299
		c0.021-0.584,0.043-0.896,0.065-0.94c0.021-0.043,0.162-0.124,0.421-0.243s0.578-0.254,0.956-0.405
		c0.377-0.15,0.783-0.313,1.215-0.485c0.432-0.173,0.837-0.324,1.215-0.454c0.377-0.13,0.691-0.237,0.939-0.323
		c0.248-0.086,0.373-0.119,0.373-0.098c-0.022,0.324-0.054,0.956-0.098,1.896s-0.097,2.058-0.162,3.353
		c-0.065,1.297-0.135,2.712-0.21,4.244c-0.076,1.535-0.146,3.078-0.211,4.635c0.259-0.691,0.616-1.404,1.069-2.139
		c0.454-0.734,0.982-1.404,1.588-2.01c0.604-0.604,1.258-1.096,1.96-1.474c0.702-0.378,1.442-0.556,2.219-0.534
		c0.519,0.021,0.956,0.173,1.312,0.453c0.357,0.281,0.637,0.643,0.843,1.086c0.205,0.443,0.346,0.939,0.42,1.49
		c0.076,0.551,0.092,1.096,0.048,1.636L63.062,282.201z"/>
	<path d="M87.359,260.946c0.994-0.043,1.907,0.254,2.738,0.892c0.832,0.637,1.545,1.469,2.139,2.495
		c0.594,1.025,1.037,2.17,1.328,3.434c0.291,1.265,0.395,2.501,0.309,3.71c0,0.064-0.125,0.275-0.373,0.632
		s-0.551,0.788-0.906,1.296c-0.357,0.508-0.746,1.037-1.168,1.588c-0.421,0.551-0.81,1.053-1.166,1.506
		c-0.355,0.454-0.659,0.821-0.907,1.102c-0.249,0.281-0.372,0.379-0.372,0.292c0-0.194-0.017-0.604-0.049-1.231
		c-0.033-0.625-0.076-1.344-0.131-2.154c-0.053-0.811-0.129-1.662-0.227-2.559c-0.096-0.896-0.216-1.723-0.355-2.479
		c-0.141-0.756-0.308-1.378-0.503-1.863c-0.194-0.486-0.421-0.73-0.681-0.73c-0.107,0-0.259,0.19-0.453,0.568
		c-0.193,0.378-0.404,0.902-0.632,1.57c-0.227,0.671-0.454,1.465-0.681,2.382c-0.227,0.919-0.42,1.907-0.582,2.965
		s-0.287,2.183-0.373,3.37c-0.087,1.188-0.098,2.376-0.032,3.563c0.021,0.692,0.103,1.448,0.243,2.268
		c0.141,0.821,0.352,1.577,0.631,2.269c0.281,0.691,0.648,1.252,1.103,1.685s1.026,0.615,1.716,0.55
		c1.167-0.106,2.199-0.609,3.096-1.506c0.895-0.896,1.673-2.029,2.332-3.401c0.658-1.372,1.227-2.9,1.701-4.585
		c0.475-1.686,0.896-3.37,1.264-5.055c0.021-0.15,0.092-0.259,0.211-0.324c0.119-0.064,0.232-0.075,0.34-0.031
		c0.108,0.043,0.211,0.145,0.308,0.307c0.098,0.163,0.146,0.373,0.146,0.633c0,0.129-0.043,0.485-0.129,1.068
		c-0.087,0.584-0.228,1.312-0.422,2.188c-0.193,0.875-0.437,1.847-0.729,2.916c-0.291,1.068-0.637,2.148-1.037,3.24
		c-0.4,1.09-0.858,2.154-1.377,3.191c-0.518,1.037-1.102,1.959-1.749,2.77s-1.36,1.463-2.139,1.96s-1.62,0.756-2.527,0.778
		c-0.843,0.021-1.798-0.232-2.867-0.762s-2.073-1.389-3.013-2.576s-1.729-2.732-2.366-4.633s-0.956-4.233-0.956-6.998
		c0-1.188,0.092-2.408,0.275-3.662c0.184-1.252,0.454-2.473,0.811-3.66c0.355-1.188,0.799-2.322,1.328-3.402
		s1.139-2.025,1.831-2.836c0.69-0.809,1.458-1.457,2.301-1.943C85.448,261.255,86.366,260.99,87.359,260.946z"/>
	<path d="M103.98,272.125c0.303-0.064,0.708-0.15,1.215-0.26c0.508-0.107,1.005-0.211,1.491-0.308
		c0.485-0.097,0.907-0.173,1.264-0.228c0.356-0.053,0.534-0.059,0.534-0.016s-0.027,0.422-0.08,1.135
		c-0.055,0.713-0.13,1.587-0.228,2.624c-0.097,1.037-0.2,2.16-0.308,3.37c-0.109,1.209-0.2,2.338-0.275,3.385
		c-0.076,1.048-0.125,1.934-0.146,2.657c-0.022,0.724,0,1.107,0.064,1.15c0.259,0.216,0.556,0.103,0.892-0.341
		c0.334-0.442,0.686-1.068,1.053-1.879s0.729-1.723,1.085-2.738c0.356-1.014,0.686-1.986,0.987-2.915
		c0.303-0.929,0.552-1.733,0.746-2.415c0.194-0.68,0.312-1.085,0.357-1.215c0.063-0.215,0.145-0.345,0.242-0.388
		s0.193-0.032,0.291,0.032s0.173,0.189,0.227,0.372c0.055,0.184,0.07,0.395,0.049,0.632c-0.064,0.562-0.199,1.307-0.404,2.236
		c-0.205,0.929-0.471,1.934-0.795,3.013c-0.322,1.08-0.707,2.171-1.148,3.272c-0.443,1.102-0.93,2.102-1.459,2.996
		c-0.529,0.896-1.107,1.637-1.732,2.221c-0.627,0.582-1.286,0.885-1.977,0.906c-0.454,0.044-0.951-0.076-1.491-0.355
		c-0.302-0.13-0.552-0.324-0.745-0.584c-0.194-0.259-0.352-0.556-0.47-0.891c-0.119-0.335-0.206-0.691-0.259-1.07
		c-0.055-0.377-0.081-0.738-0.081-1.084c-0.238,0.496-0.524,0.967-0.858,1.409c-0.336,0.442-0.713,0.831-1.135,1.166
		c-0.422,0.336-0.875,0.6-1.361,0.794c-0.485,0.195-0.987,0.271-1.506,0.227c-0.346-0.021-0.799-0.145-1.361-0.373
		c-0.562-0.227-1.102-0.636-1.619-1.23c-0.519-0.594-0.951-1.414-1.297-2.463c-0.345-1.047-0.475-2.402-0.389-4.065
		c0.087-1.815,0.416-3.3,0.988-4.455s1.258-2.062,2.058-2.722c0.8-0.658,1.647-1.123,2.544-1.393
		c0.896-0.271,1.728-0.432,2.494-0.486s1.637-0.016,2.608,0.113C104.002,271.963,103.98,272.018,103.98,272.125z M101.064,284.469
		c0.217-0.021,0.422-0.118,0.617-0.291c0.193-0.174,0.377-0.378,0.549-0.616c0.174-0.237,0.33-0.502,0.471-0.794
		c0.141-0.291,0.265-0.555,0.373-0.793c0.021-0.54,0.049-1.183,0.08-1.928c0.033-0.746,0.065-1.508,0.098-2.284
		c0.032-0.778,0.064-1.528,0.098-2.252c0.032-0.724,0.059-1.355,0.08-1.896c-0.086,0.021-0.236,0.032-0.453,0.032
		c-0.41,0.022-0.816,0.238-1.215,0.647c-0.4,0.41-0.762,0.945-1.086,1.604s-0.588,1.42-0.793,2.284
		c-0.205,0.863-0.308,1.771-0.308,2.722c0,0.323,0.016,0.696,0.048,1.117c0.033,0.422,0.103,0.815,0.211,1.183
		c0.107,0.367,0.259,0.681,0.454,0.939C100.482,284.404,100.741,284.513,101.064,284.469z"/>
	<path d="M110.234,265.612l1.49-0.194c0.043-0.713,0.082-1.371,0.113-1.977c0.032-0.604,0.07-1.123,0.113-1.556
		c0.021-0.518,0.044-0.982,0.064-1.394c-0.021,0.022,0.104,0,0.373-0.064s0.604-0.145,1.004-0.242
		c0.4-0.098,0.832-0.199,1.297-0.309c0.465-0.107,0.9-0.199,1.312-0.275c0.41-0.074,0.75-0.135,1.021-0.178
		c0.27-0.043,0.405-0.043,0.405,0c0,0.021-0.012,0.168-0.033,0.438c-0.021,0.271-0.06,0.643-0.113,1.117
		c-0.055,0.477-0.113,1.032-0.178,1.67c-0.065,0.637-0.129,1.333-0.195,2.089l1.652-0.228l-0.161,3.727l-1.815-0.031
		c-0.129,1.252-0.254,2.549-0.372,3.888s-0.237,2.651-0.356,3.937s-0.227,2.5-0.324,3.645c-0.098,1.146-0.173,2.154-0.227,3.029
		c-0.055,0.875-0.092,1.577-0.113,2.106s-0.012,0.804,0.033,0.826c0.236,0.216,0.528,0.13,0.874-0.259
		c0.345-0.39,0.708-0.945,1.085-1.67c0.379-0.723,0.751-1.544,1.118-2.461c0.368-0.919,0.702-1.793,1.005-2.625
		s0.551-1.561,0.745-2.188c0.194-0.626,0.313-1.016,0.356-1.166c0.064-0.216,0.156-0.367,0.275-0.453
		c0.118-0.087,0.231-0.119,0.34-0.098c0.107,0.021,0.199,0.098,0.275,0.227c0.076,0.13,0.092,0.303,0.049,0.518
		c-0.108,0.584-0.281,1.33-0.52,2.236c-0.236,0.907-0.523,1.874-0.857,2.9c-0.336,1.025-0.729,2.057-1.183,3.094
		s-0.944,1.977-1.474,2.818c-0.53,0.842-1.107,1.534-1.734,2.074s-1.285,0.82-1.977,0.842c-0.583,0.044-1.074-0.076-1.475-0.355
		c-0.399-0.281-0.713-0.682-0.939-1.199c-0.227-0.52-0.383-1.15-0.469-1.895c-0.088-0.746-0.108-1.572-0.065-2.479
		c0.087-1.664,0.185-3.381,0.292-5.152c0.086-1.49,0.183-3.144,0.292-4.957c0.106-1.814,0.216-3.564,0.323-5.25l-1.588-0.031
		L110.234,265.612z"/>
	<path d="M124.393,266.099c0.237-0.021,0.49-0.027,0.762-0.017c0.27,0.012,0.522,0.027,0.761,0.049
		c0.28,0.021,0.572,0.054,0.874,0.097c0.217,1.772,0.411,3.337,0.584,4.698c0.064,0.584,0.129,1.155,0.194,1.717
		c0.065,0.562,0.124,1.06,0.179,1.49c0.053,0.434,0.092,0.778,0.113,1.037c0.021,0.26,0.032,0.379,0.032,0.356
		c-0.13-0.237-0.347-0.485-0.648-0.745s-0.627-0.441-0.972-0.551c-0.346-0.107-0.653-0.098-0.924,0.032
		c-0.27,0.13-0.438,0.465-0.502,1.005c-0.064,0.518,0.07,1.129,0.404,1.83c0.336,0.703,0.686,1.529,1.054,2.479
		c0.54-0.259,1.063-0.539,1.571-0.842s0.973-0.637,1.393-1.004c0.422-0.367,0.789-0.783,1.103-1.248s0.556-0.999,0.729-1.604
		c0.021-0.151,0.098-0.265,0.228-0.34c0.129-0.076,0.259-0.086,0.389-0.033c0.129,0.055,0.227,0.179,0.291,0.373
		s0.064,0.496,0,0.906c-0.129,0.692-0.355,1.318-0.68,1.88c-0.324,0.562-0.719,1.064-1.183,1.507
		c-0.465,0.442-0.978,0.848-1.539,1.215c-0.562,0.367-1.134,0.703-1.718,1.005c0.151,0.583,0.266,1.21,0.34,1.879
		c0.076,0.67,0.082,1.383,0.017,2.139c-0.087,1.08-0.313,2.003-0.681,2.771c-0.367,0.766-0.793,1.393-1.279,1.879
		s-1,0.842-1.539,1.068s-1.025,0.34-1.458,0.34s-0.854-0.096-1.263-0.291c-0.412-0.194-0.778-0.497-1.103-0.907
		c-0.323-0.411-0.567-0.939-0.729-1.587c-0.163-0.648-0.2-1.426-0.113-2.333c0.106-1.167,0.458-2.117,1.053-2.851
		c0.593-0.735,1.323-1.373,2.187-1.912c-0.303-0.519-0.632-1.01-0.988-1.475s-0.696-0.982-1.02-1.555
		c-0.324-0.572-0.596-1.248-0.811-2.025c-0.217-0.777-0.335-1.75-0.357-2.916c0-1.059,0.152-2.031,0.455-2.916
		c0.301-0.886,0.707-1.657,1.215-2.316c0.507-0.659,1.074-1.188,1.7-1.588C123.14,266.396,123.766,266.162,124.393,266.099z
		 M123.226,284.599c-0.021-0.237-0.054-0.464-0.097-0.681c-0.044-0.215-0.087-0.432-0.13-0.647c-0.627,0.368-1.134,0.74-1.522,1.117
		c-0.389,0.379-0.596,0.815-0.616,1.312c-0.022,0.434,0.005,0.778,0.081,1.037c0.076,0.26,0.167,0.466,0.275,0.615
		c0.107,0.152,0.238,0.256,0.389,0.309c0.151,0.055,0.292,0.093,0.422,0.113c0.367,0.064,0.68-0.211,0.939-0.826
		C123.226,286.332,123.312,285.55,123.226,284.599z"/>
</g>
</svg>
