<?xml version="1.0" encoding="utf-8"?>
<!-- Generator: Adobe Illustrator 16.0.0, SVG Export Plug-In . SVG Version: 6.00 Build 0)  -->
<!DOCTYPE svg PUBLIC "-//W3C//DTD SVG 1.1//EN" "http://www.w3.org/Graphics/SVG/1.1/DTD/svg11.dtd">
<svg version="1.1"
	 id="svg12553" xmlns:dc="http://purl.org/dc/elements/1.1/" xmlns:cc="http://creativecommons.org/ns#" xmlns:rdf="http://www.w3.org/1999/02/22-rdf-syntax-ns#" xmlns:svg="http://www.w3.org/2000/svg" xmlns:sodipodi="http://sodipodi.sourceforge.net/DTD/sodipodi-0.dtd" xmlns:inkscape="http://www.inkscape.org/namespaces/inkscape" sodipodi:docname="SEQ3.svg" inkscape:version="0.92.2 5c3e80d, 2017-08-06"
	 xmlns="http://www.w3.org/2000/svg" xmlns:xlink="http://www.w3.org/1999/xlink" x="0px" y="0px" width="115.459px"
	 height="307.336px" viewBox="215.291 27.414 115.459 307.336" enable-background="new 215.291 27.414 115.459 307.336"
	 xml:space="preserve">
<sodipodi:namedview  inkscape:cx="244.8342" fit-margin-top="0" showgrid="true" bordercolor="#666666" fit-margin-left="0" inkscape:cy="381.37052" id="base" borderopacity="1.0" pagecolor="#ffffff" inkscape:zoom="22.4" inkscape:pageshadow="2" inkscape:window-y="18" inkscape:window-height="1422" inkscape:current-layer="layer1" inkscape:window-width="2560" inkscape:document-units="mm" inkscape:pageopacity="0.0" fit-margin-bottom="0" inkscape:window-maximized="0" fit-margin-right="0" inkscape:window-x="0" units="px">
	<inkscape:grid  originx="-20.372917" originy="84.666661" id="grid12870" type="xygrid"></inkscape:grid>
</sodipodi:namedview>
<g>
	<rect x="-27.349" y="-117.743" fill="#3EC4FF" width="599.867" height="596.86"/>
	<g>
		<defs>
			<rect id="SVGID_1_" x="-26.542" y="-118.894" width="599.932" height="599.976"/>
		</defs>
		<clipPath id="SVGID_2_">
			<use xlink:href="#SVGID_1_"  overflow="visible"/>
		</clipPath>
	</g>
	<g>
		<defs>
			<rect id="SVGID_3_" x="-26.542" y="-118.894" width="599.932" height="599.976"/>
		</defs>
		<clipPath id="SVGID_4_">
			<use xlink:href="#SVGID_3_"  overflow="visible"/>
		</clipPath>
		<path clip-path="url(#SVGID_4_)" d="M273.39,181.082c-155.004-45.703-240.72-145.703-257.146-300h42.857
			C53.047,18.312,124.478,118.311,273.39,181.082L273.39,181.082z"/>
		<path clip-path="url(#SVGID_4_)" d="M273.39,181.082c-140.947-79.049-198.093-179.049-171.432-300h42.859
			C99.32-13.25,142.179,86.75,273.39,181.082L273.39,181.082z"/>
		<path clip-path="url(#SVGID_4_)" d="M273.39,181.082c-119.822-108.43-148.396-208.43-85.715-300h42.857
			C152.175-40.082,166.462,59.918,273.39,181.082L273.39,181.082z"/>
		<path clip-path="url(#SVGID_4_)" d="M273.39,181.082c-92.689-132.375-92.689-232.375,0-300h42.857
			C210.39-60.838,196.104,39.162,273.39,181.082L273.39,181.082z"/>
		<path clip-path="url(#SVGID_4_)" d="M273.39,181.082c-60.91-149.68-32.338-249.681,85.715-300h42.857
			C272.479-74.478,229.622,25.521,273.39,181.082L273.39,181.082z"/>
		<path clip-path="url(#SVGID_4_)" d="M273.39,181.082c-26.074-159.482,31.068-259.482,171.43-300h42.855
			C336.763-80.316,265.335,19.683,273.39,181.082L273.39,181.082z"/>
		<path clip-path="url(#SVGID_4_)" d="M273.39,181.082c10.066-161.287,95.781-261.286,257.143-300h42.857
			C401.452-78.062,301.452,21.938,273.39,181.082L273.39,181.082z"/>
	</g>
	<path d="M273.39,181.082c45.705-155.002,145.705-240.716,300-257.143v42.857C436.161-39.257,336.161,32.172,273.39,181.082
		L273.39,181.082z"/>
	<path d="M273.39,181.082c79.049-140.945,179.049-198.089,300-171.428v42.857C467.724,7.017,367.724,49.873,273.39,181.082
		L273.39,181.082z"/>
	<path d="M273.39,181.082c108.432-119.822,208.432-148.393,300-85.713v42.855C494.554,59.869,394.556,74.154,273.39,181.082
		L273.39,181.082z"/>
	<path d="M273.39,181.082c132.375-92.689,232.375-92.689,300,0v42.857C515.312,118.082,415.312,103.797,273.39,181.082
		L273.39,181.082z"/>
	<path d="M273.39,181.082c149.682-60.91,249.682-32.338,300,85.715v42.857C528.95,180.172,428.95,137.314,273.39,181.082
		L273.39,181.082z"/>
	<path d="M273.39,181.082c159.482-26.074,259.482,31.068,300,171.428v42.857C534.79,244.455,434.788,173.027,273.39,181.082
		L273.39,181.082z"/>
	<path d="M273.39,181.082c161.287,10.066,261.287,95.781,300,257.143v42.857C532.534,309.145,432.534,209.145,273.39,181.082
		L273.39,181.082z"/>
	<path d="M273.39,181.082c155.002,45.703,240.717,145.705,257.143,300h-42.857C493.728,343.854,422.302,243.854,273.39,181.082
		L273.39,181.082z"/>
	<path d="M273.39,181.082c140.947,79.049,198.09,179.049,171.43,300h-42.857C447.456,375.416,404.599,275.416,273.39,181.082
		L273.39,181.082z"/>
	<path d="M273.39,181.082c119.822,108.432,148.395,208.432,85.715,300h-42.857C394.604,402.246,380.319,302.248,273.39,181.082
		L273.39,181.082z"/>
	<path d="M273.39,181.082c92.689,132.375,92.689,232.375,0,300h-42.857C336.39,423.004,350.677,323.002,273.39,181.082
		L273.39,181.082z"/>
	<path d="M273.39,181.082c60.91,149.682,32.338,249.682-85.715,300h-42.857C274.3,436.643,317.157,336.643,273.39,181.082
		L273.39,181.082z"/>
	<g>
		<path d="M273.39,181.082c26.076,159.482-31.066,259.482-171.432,300H59.101C210.017,442.48,281.444,342.48,273.39,181.082
			L273.39,181.082z"/>
		<path d="M273.39,181.082c-10.066,161.287-95.781,261.287-257.146,300h-42.857C145.327,440.227,245.329,340.227,273.39,181.082
			L273.39,181.082z"/>
		<path d="M273.39,181.082C227.687,336.084,127.685,421.799-26.614,438.225v-42.857C110.615,401.422,210.62,329.992,273.39,181.082
			L273.39,181.082z"/>
		<path d="M273.39,181.082C194.341,322.029,94.337,379.172-26.614,352.51v-42.855C79.053,355.148,179.056,312.291,273.39,181.082
			L273.39,181.082z"/>
		<path d="M273.39,181.082C164.958,300.904,64.956,329.477-26.614,266.797v-42.857C52.222,302.297,152.224,288.01,273.39,181.082
			L273.39,181.082z"/>
		<path d="M273.39,181.082c-132.377,92.689-232.379,92.689-300.004,0v-42.857C31.466,244.082,131.468,258.367,273.39,181.082
			L273.39,181.082z"/>
		<path d="M273.39,181.082C123.706,241.992,23.705,213.42-26.614,95.369V52.512C17.826,181.992,117.827,224.85,273.39,181.082
			L273.39,181.082z"/>
		<path d="M273.39,181.082C113.903,207.158,13.903,150.016-26.614,9.654v-42.857C11.987,117.709,111.987,189.137,273.39,181.082
			L273.39,181.082z"/>
		<path d="M273.39,181.082C112.101,171.016,12.1,85.301-26.614-76.061v-42.857C14.241,53.021,114.24,153.021,273.39,181.082
			L273.39,181.082z"/>
	</g>
	<rect x="68.712" y="-23.684" fill="none" width="410.75" height="410.746"/>
</g>
</svg>
